<?xml version="1.0" encoding="UTF-8" standalone="no"?>
<svg
   xmlns:dc="http://purl.org/dc/elements/1.1/"
   xmlns:cc="http://creativecommons.org/ns#"
   xmlns:rdf="http://www.w3.org/1999/02/22-rdf-syntax-ns#"
   xmlns:svg="http://www.w3.org/2000/svg"
   xmlns="http://www.w3.org/2000/svg"
   width="70mm"
   height="70mm"
   viewBox="0 0 70 70"
   version="1.1"
   id="svg3917">
  <defs
     id="defs3911">
    <filter
       style="color-interpolation-filters:sRGB"
       id="filter2706"
       x="-0.20619245"
       width="1.4123849"
       y="-0.20619246"
       height="1.4123849">
      <feGaussianBlur
         stdDeviation="4.3020856"
         id="feGaussianBlur2708" />
    </filter>
    <filter
       style="color-interpolation-filters:sRGB"
       id="filter3863-3-5"
       x="-0.072353475"
       width="1.144707"
       y="-0.11608218"
       height="1.2321644">
      <feGaussianBlur
         stdDeviation="2.2212282"
         id="feGaussianBlur3865-6-3" />
    </filter>
  </defs>
  <metadata
     id="metadata3914">
    <rdf:RDF>
      <cc:Work
         rdf:about="">
        <dc:format>image/svg+xml</dc:format>
        <dc:type
           rdf:resource="http://purl.org/dc/dcmitype/StillImage" />
        <dc:title></dc:title>
      </cc:Work>
    </rdf:RDF>
  </metadata>
  <g
     id="layer1">
    <path
       id="path1667"
       style="fill:#ffdd55;stroke:none;stroke-width:0.364932;stroke-linejoin:round;stroke-miterlimit:4;stroke-dasharray:none"
       d="m 48.772414,17.44282 c -0.37337,0 -0.674125,0.300396 -0.674125,0.673765 V 19.806 a 12.284982,12.284982 0 0 0 -1.849832,0.243483 l -0.437063,-1.63166 c -0.09664,-0.360641 -0.46499,-0.573268 -0.825631,-0.476633 -0.360648,0.09664 -0.573261,0.464995 -0.476633,0.825636 l 0.437416,1.632019 a 12.284982,12.284982 0 0 0 -1.723631,0.713694 L 42.378024,19.6495 c -0.186681,-0.323348 -0.597109,-0.43338 -0.920457,-0.246692 -0.323347,0.186681 -0.433373,0.597109 -0.246692,0.920457 l 0.844526,1.46304 a 12.284982,12.284982 0 0 0 -1.480149,1.136139 L 39.380649,21.72784 c -0.264013,-0.264007 -0.689246,-0.264007 -0.953259,0 -0.264007,0.264013 -0.264007,0.688893 0,0.952907 l 1.194604,1.194597 a 12.284982,12.284982 0 0 0 -1.135423,1.480514 l -1.4634,-0.844891 c -0.323347,-0.186681 -0.734135,-0.07665 -0.920814,0.246692 -0.186689,0.323348 -0.07666,0.734134 0.246691,0.920822 l 1.463393,0.844883 a 12.284982,12.284982 0 0 0 -0.714048,1.723632 l -1.632019,-0.437415 c -0.360649,-0.09663 -0.728643,0.115985 -0.825277,0.476633 -0.09664,0.360641 0.115626,0.728643 0.476274,0.825277 l 1.632012,0.437416 A 12.284982,12.284982 0 0 0 36.5059,31.398738 h -1.689409 c -0.373368,0 -0.674123,0.300397 -0.674123,0.673766 0,0.37337 0.300755,0.674125 0.674123,0.674125 H 36.5059 a 12.284982,12.284982 0 0 0 0.243483,1.849482 l -1.632012,0.437413 c -0.360648,0.09664 -0.572909,0.464983 -0.476274,0.825629 0.09663,0.360648 0.464628,0.573268 0.825277,0.476634 l 1.632019,-0.437415 a 12.284982,12.284982 0 0 0 0.714048,1.723632 l -1.463393,0.844882 c -0.323348,0.186689 -0.43338,0.597117 -0.246691,0.920464 0.186679,0.323348 0.597467,0.433372 0.920814,0.246692 l 1.463043,-0.844525 a 12.284982,12.284982 0 0 0 1.13578,1.480147 l -1.194604,1.194605 c -0.264007,0.264006 -0.264007,0.689246 0,0.953251 0.264013,0.264015 0.689246,0.264015 0.953259,0 l 1.194603,-1.194596 a 12.284982,12.284982 0 0 0 1.480507,1.13578 l -0.844884,1.463039 c -0.186681,0.323348 -0.07666,0.734135 0.246692,0.920816 0.323348,0.186687 0.733776,0.07666 0.920457,-0.246691 l 0.844891,-1.463399 a 12.284982,12.284982 0 0 0 1.723631,0.714053 L 44.50913,45.37854 c -0.09663,0.360649 0.115985,0.728643 0.476633,0.825279 0.360641,0.09663 0.728995,-0.115627 0.825631,-0.476275 l 0.437414,-1.63202 a 12.284982,12.284982 0 0 0 1.849481,0.243485 v 1.689414 c 0,0.37337 0.300755,0.674125 0.674125,0.674125 0.373368,0 0.673763,-0.300755 0.673763,-0.674125 v -1.689414 a 12.284982,12.284982 0 0 0 1.849834,-0.243485 l 0.437414,1.63202 c 0.09663,0.360648 0.46463,0.572909 0.825278,0.476275 0.360648,-0.09664 0.573261,-0.46463 0.476626,-0.825279 l -0.437414,-1.632018 a 12.284982,12.284982 0 0 0 1.723638,-0.714053 l 0.844884,1.463399 c 0.186687,0.323347 0.597474,0.433371 0.920814,0.246691 0.323348,-0.186681 0.433381,-0.597468 0.246692,-0.920816 L 55.48906,42.358704 a 12.284982,12.284982 0 0 0 1.480507,-1.13578 l 1.194603,1.194596 c 0.264008,0.264015 0.688893,0.264015 0.9529,0 0.264014,-0.264005 0.264008,-0.689245 0,-0.953251 l -1.194596,-1.194605 a 12.284982,12.284982 0 0 0 1.136132,-1.480507 l 1.463047,0.844885 c 0.323348,0.18668 0.733775,0.07666 0.920455,-0.246692 0.186681,-0.323347 0.07666,-0.733775 -0.246692,-0.920464 l -1.463039,-0.844882 a 12.284982,12.284982 0 0 0 0.714054,-1.72328 l 1.63166,0.437063 c 0.360648,0.09663 0.728995,-0.115986 0.825628,-0.476634 0.09664,-0.360646 -0.115977,-0.728993 -0.476625,-0.825629 l -1.632019,-0.437413 a 12.284982,12.284982 0 0 0 0.243484,-1.849482 h 1.689772 c 0.37337,0 0.673766,-0.300755 0.673766,-0.674125 0,-0.373369 -0.300396,-0.673766 -0.673766,-0.673766 h -1.689414 a 12.284982,12.284982 0 0 0 -0.243482,-1.849831 l 1.631659,-0.437416 c 0.360648,-0.09663 0.573261,-0.464629 0.476625,-0.825277 -0.09663,-0.360648 -0.46498,-0.573268 -0.825628,-0.476633 l -1.63166,0.437063 a 12.284982,12.284982 0 0 0 -0.714054,-1.72328 l 1.463039,-0.844883 c 0.323348,-0.186688 0.433381,-0.597474 0.246692,-0.920822 -0.18668,-0.323341 -0.597115,-0.433373 -0.920455,-0.246692 l -1.463399,0.844891 a 12.284982,12.284982 0 0 0 -1.13578,-1.480514 l 1.194597,-1.194597 c 0.264013,-0.264014 0.264013,-0.688894 0,-0.952907 -0.264008,-0.264007 -0.688888,-0.264007 -0.952901,0 l -1.194603,1.194604 A 12.284982,12.284982 0 0 0 55.48906,21.786663 l 0.844883,-1.463398 c 0.186689,-0.323348 0.07666,-0.733776 -0.246692,-0.920457 -0.323348,-0.186688 -0.734127,-0.07666 -0.920814,0.246692 l -0.844526,1.463039 a 12.284982,12.284982 0 0 0 -1.723636,-0.714053 l 0.437054,-1.63166 c 0.09664,-0.360648 -0.115978,-0.729001 -0.476626,-0.825636 -0.360648,-0.09663 -0.728643,0.115985 -0.825278,0.476633 l -0.437414,1.632019 a 12.284982,12.284982 0 0 0 -1.849834,-0.243491 v -1.689766 c 0,-0.373369 -0.300395,-0.673765 -0.673763,-0.673765 z" />
    <path
       id="path3236"
       style="opacity:0.683034;mix-blend-mode:normal;fill:#ffdd55;stroke:none;stroke-width:0.624538;stroke-linejoin:round;stroke-miterlimit:4;stroke-dasharray:none;filter:url(#filter2706)"
       d="m 116.80293,103.9696 c -0.63898,0 -1.15369,0.51409 -1.15369,1.15307 v 2.89124 a 21.02431,21.02431 0 0 0 -3.16577,0.41669 l -0.74798,-2.7924 c -0.16538,-0.61719 -0.79578,-0.98108 -1.41297,-0.8157 -0.61721,0.16538 -0.98107,0.79579 -0.8157,1.41298 l 0.74858,2.79301 a 21.02431,21.02431 0 0 0 -2.94979,1.2214 l -1.44593,-2.50382 c -0.31948,-0.55337 -1.02188,-0.74167 -1.57526,-0.42218 -0.55337,0.31948 -0.74166,1.02188 -0.42218,1.57525 l 1.44531,2.50383 a 21.02431,21.02431 0 0 0 -2.5331,1.94436 l -2.04443,-2.04442 c -0.45183,-0.45182 -1.179562,-0.45182 -1.63139,0 -0.451817,0.45183 -0.451817,1.17896 0,1.63079 l 2.04442,2.04441 a 21.02431,21.02431 0 0 0 -1.943136,2.53373 l -2.50444,-1.44593 c -0.553372,-0.31949 -1.256385,-0.13118 -1.575868,0.42218 -0.319494,0.55337 -0.131188,1.25639 0.422184,1.57588 l 2.504427,1.44592 a 21.02431,21.02431 0 0 0 -1.22201,2.94979 l -2.79301,-0.74858 c -0.617207,-0.16538 -1.246987,0.19849 -1.412366,0.8157 -0.165379,0.61719 0.197881,1.24699 0.815088,1.41237 l 2.792998,0.74858 a 21.02431,21.02431 0 0 0 -0.416694,3.16577 h -2.891224 c -0.638977,0 -1.153684,0.5141 -1.153684,1.15307 0,0.63898 0.514707,1.15369 1.153684,1.15369 h 2.891224 a 21.02431,21.02431 0 0 0 0.416694,3.16517 l -2.792998,0.74858 c -0.617207,0.16538 -0.980467,0.79576 -0.815088,1.41297 0.165379,0.61721 0.795159,0.98108 1.412366,0.8157 l 2.79301,-0.74858 a 21.02431,21.02431 0 0 0 1.22201,2.94979 l -2.504427,1.44592 c -0.553372,0.31949 -0.741678,1.02189 -0.422184,1.57527 0.319483,0.55337 1.022496,0.74166 1.575868,0.42218 l 2.503826,-1.44531 a 21.02431,21.02431 0 0 0 1.94375,2.5331 l -2.04442,2.04443 c -0.451817,0.45182 -0.451817,1.17956 0,1.63138 0.451828,0.45183 1.17956,0.45183 1.63139,0 l 2.04443,-2.04441 a 21.02431,21.02431 0 0 0 2.53371,1.94375 l -1.44592,2.50382 c -0.31948,0.55337 -0.13119,1.25639 0.42218,1.57587 0.55338,0.31949 1.25578,0.13119 1.57526,-0.42218 l 1.44593,-2.50444 a 21.02431,21.02431 0 0 0 2.94979,1.22202 l -0.74858,2.79301 c -0.16538,0.61721 0.19849,1.24699 0.8157,1.41236 0.61719,0.16538 1.24759,-0.19788 1.41297,-0.81508 l 0.74858,-2.79301 a 21.02431,21.02431 0 0 0 3.16517,0.41669 v 2.89124 c 0,0.63897 0.51471,1.15368 1.15369,1.15368 0.63897,0 1.15307,-0.51471 1.15307,-1.15368 v -2.89124 a 21.02431,21.02431 0 0 0 3.16577,-0.41669 l 0.74858,2.79301 c 0.16538,0.6172 0.79516,0.98046 1.41237,0.81508 0.61721,-0.16537 0.98107,-0.79515 0.81569,-1.41236 l -0.74858,-2.79301 a 21.02431,21.02431 0 0 0 2.9498,-1.22202 l 1.44592,2.50444 c 0.3195,0.55337 1.02251,0.74166 1.57587,0.42218 0.55337,-0.31948 0.74168,-1.0225 0.42218,-1.57587 l -1.44592,-2.50382 a 21.02431,21.02431 0 0 0 2.53372,-1.94375 l 2.04442,2.04441 c 0.45182,0.45183 1.17896,0.45183 1.63078,0 0.45183,-0.45182 0.45182,-1.17956 0,-1.63138 l -2.04441,-2.04443 a 21.02431,21.02431 0 0 0 1.94435,-2.53371 l 2.50384,1.44592 c 0.55337,0.31948 1.25577,0.13119 1.57525,-0.42218 0.31948,-0.55338 0.13119,-1.25578 -0.42218,-1.57527 l -2.50382,-1.44592 a 21.02431,21.02431 0 0 0 1.22201,-2.94919 l 2.7924,0.74798 c 0.61721,0.16538 1.24759,-0.19849 1.41297,-0.8157 0.16538,-0.61721 -0.19849,-1.24759 -0.81569,-1.41297 l -2.79301,-0.74858 a 21.02431,21.02431 0 0 0 0.41669,-3.16517 h 2.89185 c 0.63898,0 1.15307,-0.51471 1.15307,-1.15369 0,-0.63897 -0.51409,-1.15307 -1.15307,-1.15307 h -2.89123 a 21.02431,21.02431 0 0 0 -0.4167,-3.16577 l 2.7924,-0.74858 c 0.6172,-0.16538 0.98107,-0.79516 0.81569,-1.41237 -0.16538,-0.61721 -0.79576,-0.98108 -1.41297,-0.8157 l -2.7924,0.74798 a 21.02431,21.02431 0 0 0 -1.22201,-2.94919 l 2.50382,-1.44592 c 0.55337,-0.31949 0.74167,-1.02251 0.42218,-1.57588 -0.31948,-0.55336 -1.02189,-0.74167 -1.57525,-0.42218 l -2.50444,1.44593 a 21.02431,21.02431 0 0 0 -1.94375,-2.53373 l 2.04441,-2.04441 c 0.45183,-0.45183 0.45183,-1.17896 0,-1.63079 -0.45182,-0.45182 -1.17895,-0.45182 -1.63078,0 l -2.04442,2.04442 a 21.02431,21.02431 0 0 0 -2.53372,-1.94375 l 1.44592,-2.50444 c 0.3195,-0.55337 0.13119,-1.25577 -0.42218,-1.57525 -0.55337,-0.31949 -1.25637,-0.13119 -1.57587,0.42218 l -1.4453,2.50382 a 21.02431,21.02431 0 0 0 -2.94981,-1.22201 l 0.74797,-2.7924 c 0.16538,-0.61721 -0.19848,-1.2476 -0.81569,-1.41298 -0.61721,-0.16538 -1.24699,0.1985 -1.41237,0.8157 l -0.74858,2.79301 a 21.02431,21.02431 0 0 0 -3.16577,-0.4167 v -2.89184 c 0,-0.63898 -0.5141,-1.15307 -1.15307,-1.15307 z"
       transform="matrix(0.60029367,0,0,0.60029367,-21.343641,-45.369341)" />
    <path
       id="path1709"
       style="fill:#ffffff;fill-opacity:1;stroke:none;stroke-width:0.229562;stroke-linejoin:round;stroke-miterlimit:4;stroke-dasharray:none"
       d="M 27.823432,23.796885 A 15.237136,15.237136 0 0 0 12.692873,38.43299 8.5291536,8.5291536 0 0 0 12.20662,38.41908 8.5291536,8.5291536 0 0 0 3.6775663,46.948131 8.5291536,8.5291536 0 0 0 10.118651,55.217658 c 0.532692,0.168387 1.100323,0.259883 1.690124,0.259883 h 0.397845 31.670323 c 0.07465,0 0.148538,-0.0028 0.222451,-0.0057 a 10.073415,10.073415 0 0 0 0.332607,0.0057 10.073415,10.073415 0 0 0 10.073372,-10.073728 10.073415,10.073415 0 0 0 -10.073372,-10.073374 10.073415,10.073415 0 0 0 -1.69868,0.14438 15.237136,15.237136 0 0 0 -14.815421,-11.677941 15.237136,15.237136 0 0 0 -0.09447,0 z" />
    <path
       id="path3577-7-5"
       style="opacity:0.362847;fill:#ffffff;fill-opacity:1;stroke:none;stroke-width:0.332769;stroke-linejoin:round;stroke-miterlimit:4;stroke-dasharray:none;filter:url(#filter3863-3-5)"
       d="m 28.351036,14.763392 a 22.087523,22.087523 0 0 0 -21.9330299,21.21628 12.363733,12.363733 0 0 0 -0.70487,-0.0202 12.363733,12.363733 0 0 0 -12.3635814,12.36359 12.363733,12.363733 0 0 0 9.3369014,11.987381 c 0.77218,0.24409 1.59501,0.37672 2.44998,0.37672 h 0.5767 45.9088289 c 0.1082,0 0.21532,-0.004 0.32246,-0.008 a 14.602271,14.602271 0 0 0 0.48214,0.008 14.602271,14.602271 0 0 0 14.60221,-14.602721 14.602271,14.602271 0 0 0 -14.60221,-14.60221 14.602271,14.602271 0 0 0 -2.46238,0.20929 22.087523,22.087523 0 0 0 -21.476209,-16.92817 22.087523,22.087523 0 0 0 -0.13694,0 z"
       transform="matrix(0.68985262,0,0,0.68985262,8.2653955,13.612316)" />
  </g>
</svg>
