<?xml version="1.0" encoding="UTF-8" standalone="no"?>
<svg
   xmlns:dc="http://purl.org/dc/elements/1.1/"
   xmlns:cc="http://creativecommons.org/ns#"
   xmlns:rdf="http://www.w3.org/1999/02/22-rdf-syntax-ns#"
   xmlns:svg="http://www.w3.org/2000/svg"
   xmlns="http://www.w3.org/2000/svg"
   width="70mm"
   height="70mm"
   viewBox="0 0 70 70"
   version="1.1"
   id="svg3917">
  <defs
     id="defs3911">
    <filter
       style="color-interpolation-filters:sRGB"
       id="filter2706"
       x="-0.20619245"
       width="1.4123849"
       y="-0.20619246"
       height="1.4123849">
      <feGaussianBlur
         stdDeviation="4.3020856"
         id="feGaussianBlur2708" />
    </filter>
  </defs>
  <metadata
     id="metadata3914">
    <rdf:RDF>
      <cc:Work
         rdf:about="">
        <dc:format>image/svg+xml</dc:format>
        <dc:type
           rdf:resource="http://purl.org/dc/dcmitype/StillImage" />
        <dc:title></dc:title>
      </cc:Work>
    </rdf:RDF>
  </metadata>
  <g
     id="layer1">
    <path
       id="path1667"
       style="fill:#ffdd55;stroke:none;stroke-width:0.601694;stroke-linejoin:round;stroke-miterlimit:4;stroke-dasharray:none"
       d="m 35.000303,10.87852 c -0.615606,0 -1.111486,0.495288 -1.111486,1.110893 v 2.78548 a 20.255278,20.255278 0 0 0 -3.049973,0.401451 l -0.720623,-2.690255 c -0.159338,-0.594619 -0.766668,-0.945195 -1.361287,-0.785864 -0.59463,0.159338 -0.945183,0.766676 -0.785864,1.361295 l 0.721204,2.690846 a 20.255278,20.255278 0 0 0 -2.841895,1.176727 l -1.393042,-2.412235 c -0.307797,-0.533131 -0.984504,-0.71455 -1.517635,-0.406741 -0.533129,0.307796 -0.714538,0.984503 -0.406741,1.517634 l 1.39244,2.412237 a 20.255278,20.255278 0 0 0 -2.440445,1.873247 l -1.969642,-1.969644 c -0.435301,-0.43529 -1.136418,-0.43529 -1.571718,0 -0.435291,0.435301 -0.435291,1.135836 0,1.571138 l 1.969643,1.969632 a 20.255278,20.255278 0 0 0 -1.872066,2.441047 l -2.412831,-1.393042 c -0.533129,-0.307797 -1.210429,-0.126379 -1.518223,0.406742 -0.307809,0.533131 -0.126395,1.210428 0.40674,1.518236 l 2.412819,1.393029 a 20.255278,20.255278 0 0 0 -1.177311,2.841897 l -2.690846,-0.721203 c -0.594632,-0.159322 -1.201375,0.191234 -1.360703,0.785865 -0.159339,0.594619 0.190642,1.201374 0.785272,1.360703 l 2.690835,0.721204 a 20.255278,20.255278 0 0 0 -0.401451,3.049972 h -2.78547 c -0.615603,0 -1.111483,0.495289 -1.111483,1.110894 0,0.615606 0.49588,1.111486 1.111483,1.111486 h 2.78547 a 20.255278,20.255278 0 0 0 0.401451,3.049396 l -2.690835,0.7212 c -0.59463,0.159338 -0.944603,0.766656 -0.785272,1.361283 0.159322,0.594631 0.766071,0.945195 1.360703,0.785867 l 2.690846,-0.721203 a 20.255278,20.255278 0 0 0 1.177311,2.841896 l -2.412819,1.393028 c -0.53313,0.30781 -0.714549,0.984517 -0.40674,1.517646 0.307794,0.533131 0.985094,0.714537 1.518223,0.406742 l 2.412242,-1.392439 a 20.255278,20.255278 0 0 0 1.872655,2.440442 l -1.969643,1.969645 c -0.435291,0.435289 -0.435291,1.136418 0,1.571705 0.4353,0.435303 1.136417,0.435303 1.571718,0 l 1.969642,-1.969631 a 20.255278,20.255278 0 0 0 2.441036,1.872656 l -1.393031,2.412235 c -0.307797,0.533131 -0.126396,1.21043 0.406741,1.518226 0.533131,0.307807 1.209838,0.126396 1.517635,-0.40674 l 1.393042,-2.412828 a 20.255278,20.255278 0 0 0 2.841895,1.177319 L 27.97107,56.93848 c -0.159322,0.594633 0.191234,1.201375 0.785864,1.360707 0.594619,0.159322 1.201956,-0.190644 1.361287,-0.785275 l 0.721201,-2.690847 a 20.255278,20.255278 0 0 0 3.049395,0.401454 v 2.785478 c 0,0.615606 0.49588,1.111486 1.111486,1.111486 0.615603,0 1.110889,-0.49588 1.110889,-1.111486 v -2.785478 a 20.255278,20.255278 0 0 0 3.049977,-0.401454 l 0.721201,2.690847 c 0.159322,0.594631 0.766074,0.944604 1.360705,0.785275 0.59463,-0.159339 0.945183,-0.766074 0.785853,-1.360707 l -0.721201,-2.690844 a 20.255278,20.255278 0 0 0 2.841906,-1.177319 l 1.393031,2.412828 c 0.307806,0.533129 0.985105,0.714535 1.518223,0.40674 0.533131,-0.307796 0.714552,-0.985095 0.406742,-1.518226 l -1.39303,-2.412235 a 20.255278,20.255278 0 0 0 2.441036,-1.872656 l 1.969642,1.969631 c 0.435292,0.435303 1.135836,0.435303 1.571126,0 0.435302,-0.435287 0.435292,-1.136416 0,-1.571705 l -1.96963,-1.969645 a 20.255278,20.255278 0 0 0 1.873236,-2.441036 l 2.412248,1.393033 c 0.533131,0.307795 1.209836,0.126395 1.517631,-0.406742 0.307797,-0.533129 0.126396,-1.209836 -0.406742,-1.517646 L 53.070911,44.14963 a 20.255278,20.255278 0 0 0 1.177321,-2.841316 l 2.690254,0.720623 c 0.594631,0.159322 1.201955,-0.191236 1.361282,-0.785867 0.159339,-0.594627 -0.191221,-1.201952 -0.785851,-1.361283 l -2.690846,-0.7212 a 20.255278,20.255278 0 0 0 0.401452,-3.049396 h 2.786069 c 0.615606,0 1.110894,-0.49588 1.110894,-1.111486 0,-0.615605 -0.495288,-1.110894 -1.110894,-1.110894 h -2.785479 a 20.255278,20.255278 0 0 0 -0.401449,-3.049972 l 2.690253,-0.721204 c 0.59463,-0.159322 0.945183,-0.766073 0.785851,-1.360703 -0.159322,-0.594631 -0.766651,-0.945195 -1.361282,-0.785865 l -2.690254,0.720622 a 20.255278,20.255278 0 0 0 -1.177321,-2.841316 l 2.412235,-1.393029 c 0.533131,-0.307808 0.714552,-0.985105 0.406742,-1.518236 -0.307795,-0.53312 -0.984513,-0.714539 -1.517631,-0.406742 l -2.412829,1.393042 a 20.255278,20.255278 0 0 0 -1.872655,-2.441047 l 1.969632,-1.969632 c 0.4353,-0.435302 0.4353,-1.135837 0,-1.571138 -0.435292,-0.43529 -1.135827,-0.43529 -1.571128,0 l -1.969642,1.969644 a 20.255278,20.255278 0 0 0 -2.441036,-1.872657 l 1.39303,-2.412827 c 0.30781,-0.533131 0.126396,-1.209838 -0.406742,-1.517634 -0.533131,-0.307809 -1.210417,-0.126396 -1.518223,0.406741 l -1.392441,2.412235 A 20.255278,20.255278 0 0 0 41.30832,15.751774 l 0.720608,-2.690254 c 0.159338,-0.594631 -0.191223,-1.201965 -0.785853,-1.361295 -0.594631,-0.159322 -1.201375,0.191234 -1.360705,0.785864 l -0.721201,2.690847 a 20.255278,20.255278 0 0 0 -3.049977,-0.401464 v -2.786059 c 0,-0.615605 -0.495286,-1.110893 -1.110889,-1.110893 z" />
    <path
       id="path3236"
       style="opacity:0.683034;mix-blend-mode:normal;fill:#ffdd55;stroke:none;stroke-width:0.624538;stroke-linejoin:round;stroke-miterlimit:4;stroke-dasharray:none;filter:url(#filter2706)"
       d="m 116.80293,103.9696 c -0.63898,0 -1.15369,0.51409 -1.15369,1.15307 v 2.89124 a 21.02431,21.02431 0 0 0 -3.16577,0.41669 l -0.74798,-2.7924 c -0.16538,-0.61719 -0.79578,-0.98108 -1.41297,-0.8157 -0.61721,0.16538 -0.98107,0.79579 -0.8157,1.41298 l 0.74858,2.79301 a 21.02431,21.02431 0 0 0 -2.94979,1.2214 l -1.44593,-2.50382 c -0.31948,-0.55337 -1.02188,-0.74167 -1.57526,-0.42218 -0.55337,0.31948 -0.74166,1.02188 -0.42218,1.57525 l 1.44531,2.50383 a 21.02431,21.02431 0 0 0 -2.5331,1.94436 l -2.04443,-2.04442 c -0.45183,-0.45182 -1.179562,-0.45182 -1.63139,0 -0.451817,0.45183 -0.451817,1.17896 0,1.63079 l 2.04442,2.04441 a 21.02431,21.02431 0 0 0 -1.943136,2.53373 l -2.50444,-1.44593 c -0.553372,-0.31949 -1.256385,-0.13118 -1.575868,0.42218 -0.319494,0.55337 -0.131188,1.25639 0.422184,1.57588 l 2.504427,1.44592 a 21.02431,21.02431 0 0 0 -1.22201,2.94979 l -2.79301,-0.74858 c -0.617207,-0.16538 -1.246987,0.19849 -1.412366,0.8157 -0.165379,0.61719 0.197881,1.24699 0.815088,1.41237 l 2.792998,0.74858 a 21.02431,21.02431 0 0 0 -0.416694,3.16577 h -2.891224 c -0.638977,0 -1.153684,0.5141 -1.153684,1.15307 0,0.63898 0.514707,1.15369 1.153684,1.15369 h 2.891224 a 21.02431,21.02431 0 0 0 0.416694,3.16517 l -2.792998,0.74858 c -0.617207,0.16538 -0.980467,0.79576 -0.815088,1.41297 0.165379,0.61721 0.795159,0.98108 1.412366,0.8157 l 2.79301,-0.74858 a 21.02431,21.02431 0 0 0 1.22201,2.94979 l -2.504427,1.44592 c -0.553372,0.31949 -0.741678,1.02189 -0.422184,1.57527 0.319483,0.55337 1.022496,0.74166 1.575868,0.42218 l 2.503826,-1.44531 a 21.02431,21.02431 0 0 0 1.94375,2.5331 l -2.04442,2.04443 c -0.451817,0.45182 -0.451817,1.17956 0,1.63138 0.451828,0.45183 1.17956,0.45183 1.63139,0 l 2.04443,-2.04441 a 21.02431,21.02431 0 0 0 2.53371,1.94375 l -1.44592,2.50382 c -0.31948,0.55337 -0.13119,1.25639 0.42218,1.57587 0.55338,0.31949 1.25578,0.13119 1.57526,-0.42218 l 1.44593,-2.50444 a 21.02431,21.02431 0 0 0 2.94979,1.22202 l -0.74858,2.79301 c -0.16538,0.61721 0.19849,1.24699 0.8157,1.41236 0.61719,0.16538 1.24759,-0.19788 1.41297,-0.81508 l 0.74858,-2.79301 a 21.02431,21.02431 0 0 0 3.16517,0.41669 v 2.89124 c 0,0.63897 0.51471,1.15368 1.15369,1.15368 0.63897,0 1.15307,-0.51471 1.15307,-1.15368 v -2.89124 a 21.02431,21.02431 0 0 0 3.16577,-0.41669 l 0.74858,2.79301 c 0.16538,0.6172 0.79516,0.98046 1.41237,0.81508 0.61721,-0.16537 0.98107,-0.79515 0.81569,-1.41236 l -0.74858,-2.79301 a 21.02431,21.02431 0 0 0 2.9498,-1.22202 l 1.44592,2.50444 c 0.3195,0.55337 1.02251,0.74166 1.57587,0.42218 0.55337,-0.31948 0.74168,-1.0225 0.42218,-1.57587 l -1.44592,-2.50382 a 21.02431,21.02431 0 0 0 2.53372,-1.94375 l 2.04442,2.04441 c 0.45182,0.45183 1.17896,0.45183 1.63078,0 0.45183,-0.45182 0.45182,-1.17956 0,-1.63138 l -2.04441,-2.04443 a 21.02431,21.02431 0 0 0 1.94435,-2.53371 l 2.50384,1.44592 c 0.55337,0.31948 1.25577,0.13119 1.57525,-0.42218 0.31948,-0.55338 0.13119,-1.25578 -0.42218,-1.57527 l -2.50382,-1.44592 a 21.02431,21.02431 0 0 0 1.22201,-2.94919 l 2.7924,0.74798 c 0.61721,0.16538 1.24759,-0.19849 1.41297,-0.8157 0.16538,-0.61721 -0.19849,-1.24759 -0.81569,-1.41297 l -2.79301,-0.74858 a 21.02431,21.02431 0 0 0 0.41669,-3.16517 h 2.89185 c 0.63898,0 1.15307,-0.51471 1.15307,-1.15369 0,-0.63897 -0.51409,-1.15307 -1.15307,-1.15307 h -2.89123 a 21.02431,21.02431 0 0 0 -0.4167,-3.16577 l 2.7924,-0.74858 c 0.6172,-0.16538 0.98107,-0.79516 0.81569,-1.41237 -0.16538,-0.61721 -0.79576,-0.98108 -1.41297,-0.8157 l -2.7924,0.74798 a 21.02431,21.02431 0 0 0 -1.22201,-2.94919 l 2.50382,-1.44592 c 0.55337,-0.31949 0.74167,-1.02251 0.42218,-1.57588 -0.31948,-0.55336 -1.02189,-0.74167 -1.57525,-0.42218 l -2.50444,1.44593 a 21.02431,21.02431 0 0 0 -1.94375,-2.53373 l 2.04441,-2.04441 c 0.45183,-0.45183 0.45183,-1.17896 0,-1.63079 -0.45182,-0.45182 -1.17895,-0.45182 -1.63078,0 l -2.04442,2.04442 a 21.02431,21.02431 0 0 0 -2.53372,-1.94375 l 1.44592,-2.50444 c 0.3195,-0.55337 0.13119,-1.25577 -0.42218,-1.57525 -0.55337,-0.31949 -1.25637,-0.13119 -1.57587,0.42218 l -1.4453,2.50382 a 21.02431,21.02431 0 0 0 -2.94981,-1.22201 l 0.74797,-2.7924 c 0.16538,-0.61721 -0.19848,-1.2476 -0.81569,-1.41298 -0.61721,-0.16538 -1.24699,0.1985 -1.41237,0.8157 l -0.74858,2.79301 a 21.02431,21.02431 0 0 0 -3.16577,-0.4167 v -2.89184 c 0,-0.63898 -0.5141,-1.15307 -1.15307,-1.15307 z"
       transform="matrix(0.98975442,0,0,0.98975442,-80.605906,-92.685148)" />
  </g>
</svg>
