<?xml version="1.0" encoding="UTF-8" standalone="no"?>
<svg
   xmlns:dc="http://purl.org/dc/elements/1.1/"
   xmlns:cc="http://creativecommons.org/ns#"
   xmlns:rdf="http://www.w3.org/1999/02/22-rdf-syntax-ns#"
   xmlns:svg="http://www.w3.org/2000/svg"
   xmlns="http://www.w3.org/2000/svg"
   xmlns:xlink="http://www.w3.org/1999/xlink"
   width="70mm"
   height="70mm"
   viewBox="0 0 70 70"
   version="1.1"
   id="svg4003">
  <defs
     id="defs3997">
    <clipPath
       clipPathUnits="userSpaceOnUse"
       id="clipPath3236">
      <path
         id="path3238"
         style="fill:#ffdd55;stroke:none;stroke-width:0.529;stroke-linejoin:round;stroke-miterlimit:4;stroke-dasharray:none;filter:url(#filter3232)"
         d="m 217.59135,114.68595 c -0.54123,0 -0.9772,0.43545 -0.9772,0.97668 v 2.44895 a 17.808125,17.808125 0 0 0 -2.68149,0.35295 l -0.63356,-2.36523 c -0.14008,-0.52278 -0.67404,-0.831 -1.19682,-0.69092 -0.52279,0.14008 -0.83099,0.67405 -0.69092,1.19683 l 0.63407,2.36575 a 17.808125,17.808125 0 0 0 -2.49855,1.03456 l -1.22474,-2.1208 c -0.27061,-0.46872 -0.86556,-0.62822 -1.33428,-0.3576 -0.46872,0.27061 -0.62821,0.86556 -0.3576,1.33428 l 1.22421,2.1208 a 17.808125,17.808125 0 0 0 -2.1456,1.64693 l -1.73168,-1.73168 c -0.38271,-0.3827 -0.99912,-0.3827 -1.38183,0 -0.3827,0.38271 -0.3827,0.99861 0,1.38132 l 1.73168,1.73167 a 17.808125,17.808125 0 0 0 -1.64589,2.14613 l -2.12132,-1.22474 c -0.46872,-0.27061 -1.06419,-0.11111 -1.3348,0.3576 -0.27062,0.46872 -0.11112,1.06419 0.3576,1.33481 l 2.12131,1.22473 a 17.808125,17.808125 0 0 0 -1.03507,2.49855 l -2.36575,-0.63407 c -0.52279,-0.14008 -1.05623,0.16813 -1.19631,0.69092 -0.14008,0.52278 0.16761,1.05623 0.6904,1.19631 l 2.36574,0.63407 a 17.808125,17.808125 0 0 0 -0.35295,2.68149 h -2.44894 c -0.54123,0 -0.9772,0.43545 -0.9772,0.97668 0,0.54123 0.43597,0.9772 0.9772,0.9772 H 199.81 a 17.808125,17.808125 0 0 0 0.35295,2.68098 l -2.36574,0.63407 c -0.52279,0.14008 -0.83048,0.67403 -0.6904,1.19682 0.14008,0.52279 0.67352,0.831 1.19631,0.69092 l 2.36575,-0.63407 a 17.808125,17.808125 0 0 0 1.03507,2.49855 l -2.12131,1.22473 c -0.46872,0.27062 -0.62822,0.86557 -0.3576,1.33429 0.27061,0.46872 0.86608,0.62821 1.3348,0.3576 l 2.1208,-1.22421 a 17.808125,17.808125 0 0 0 1.64641,2.1456 l -1.73168,1.73168 c -0.3827,0.3827 -0.3827,0.99912 0,1.38182 0.38271,0.38271 0.99912,0.38271 1.38183,0 l 1.73168,-1.73167 a 17.808125,17.808125 0 0 0 2.14612,1.64641 l -1.22473,2.1208 c -0.27061,0.46872 -0.11112,1.06419 0.3576,1.3348 0.46872,0.27062 1.06367,0.11112 1.33428,-0.3576 l 1.22474,-2.12132 a 17.808125,17.808125 0 0 0 2.49855,1.03508 l -0.63407,2.36575 c -0.14008,0.52279 0.16813,1.05623 0.69092,1.19631 0.52278,0.14008 1.05674,-0.16761 1.19682,-0.6904 l 0.63407,-2.36575 a 17.808125,17.808125 0 0 0 2.68098,0.35295 v 2.44895 c 0,0.54123 0.43597,0.9772 0.9772,0.9772 0.54123,0 0.97668,-0.43597 0.97668,-0.9772 v -2.44895 a 17.808125,17.808125 0 0 0 2.68149,-0.35295 l 0.63407,2.36575 c 0.14008,0.52279 0.67352,0.83048 1.19631,0.6904 0.52279,-0.14008 0.83099,-0.67352 0.69091,-1.19631 l -0.63407,-2.36575 a 17.808125,17.808125 0 0 0 2.49856,-1.03508 l 1.22473,2.12132 c 0.27062,0.46872 0.86609,0.62821 1.3348,0.3576 0.46872,-0.27061 0.62822,-0.86608 0.3576,-1.3348 l -1.22473,-2.1208 a 17.808125,17.808125 0 0 0 2.14612,-1.64641 l 1.73168,1.73167 c 0.3827,0.38271 0.99861,0.38271 1.38131,0 0.38271,-0.3827 0.3827,-0.99912 0,-1.38182 l -1.73167,-1.73168 a 17.808125,17.808125 0 0 0 1.64692,-2.14612 l 2.12081,1.22473 c 0.46872,0.27061 1.06367,0.11112 1.33428,-0.3576 0.27061,-0.46872 0.11112,-1.06367 -0.3576,-1.33429 l -2.1208,-1.22473 a 17.808125,17.808125 0 0 0 1.03508,-2.49804 l 2.36523,0.63356 c 0.52279,0.14008 1.05674,-0.16813 1.19682,-0.69092 0.14008,-0.52279 -0.16812,-1.05674 -0.69091,-1.19682 l -2.36575,-0.63407 a 17.808125,17.808125 0 0 0 0.35295,-2.68098 h 2.44947 c 0.54123,0 0.97668,-0.43597 0.97668,-0.9772 0,-0.54123 -0.43545,-0.97668 -0.97668,-0.97668 h -2.44895 a 17.808125,17.808125 0 0 0 -0.35295,-2.68149 l 2.36523,-0.63407 c 0.52279,-0.14008 0.83099,-0.67352 0.69091,-1.19631 -0.14008,-0.52279 -0.67403,-0.831 -1.19682,-0.69092 l -2.36523,0.63356 a 17.808125,17.808125 0 0 0 -1.03508,-2.49804 l 2.1208,-1.22473 c 0.46872,-0.27062 0.62822,-0.86609 0.3576,-1.33481 -0.27061,-0.46871 -0.86557,-0.62821 -1.33428,-0.3576 l -2.12132,1.22474 a 17.808125,17.808125 0 0 0 -1.64641,-2.14613 l 1.73167,-1.73167 c 0.38271,-0.38271 0.38271,-0.99861 0,-1.38132 -0.3827,-0.3827 -0.9986,-0.3827 -1.38131,0 l -1.73168,1.73168 a 17.808125,17.808125 0 0 0 -2.14612,-1.64641 l 1.22473,-2.12132 c 0.27062,-0.46872 0.11112,-1.06367 -0.3576,-1.33428 -0.46872,-0.27062 -1.06418,-0.11112 -1.3348,0.3576 l -1.22421,2.1208 a 17.808125,17.808125 0 0 0 -2.49856,-1.03508 l 0.63355,-2.36523 c 0.14008,-0.52279 -0.16812,-1.05675 -0.69091,-1.19683 -0.52279,-0.14008 -1.05623,0.16813 -1.19631,0.69092 l -0.63407,2.36575 a 17.808125,17.808125 0 0 0 -2.68149,-0.35296 v -2.44946 c 0,-0.54123 -0.43545,-0.97668 -0.97668,-0.97668 z"
         transform="matrix(1.4253473,0,0,1.4253473,-92.55179,-57.801801)" />
    </clipPath>
    <clipPath
       clipPathUnits="userSpaceOnUse"
       id="clipPath2404">
      <path
         id="path2406"
         style="opacity:1;fill:#ffffff;fill-opacity:1;stroke:none;stroke-width:0.332769;stroke-linejoin:round;stroke-miterlimit:4;stroke-dasharray:none;filter:url(#filter2400)"
         d="m -156.54037,192.13416 a 22.087523,22.087523 0 0 0 -21.93303,21.21628 12.363733,12.363733 0 0 0 -0.70487,-0.0202 12.363733,12.363733 0 0 0 -12.36358,12.36359 12.363733,12.363733 0 0 0 9.3369,11.98738 c 0.77218,0.24409 1.59501,0.37672 2.44998,0.37672 h 0.5767 45.90883 c 0.1082,0 0.21532,-0.004 0.32246,-0.008 a 14.602271,14.602271 0 0 0 0.48214,0.008 14.602271,14.602271 0 0 0 14.60221,-14.60272 14.602271,14.602271 0 0 0 -14.60221,-14.60221 14.602271,14.602271 0 0 0 -2.46238,0.20929 22.087523,22.087523 0 0 0 -21.47621,-16.92817 22.087523,22.087523 0 0 0 -0.13694,0 z" />
    </clipPath>
    <clipPath
       clipPathUnits="userSpaceOnUse"
       id="clipPath1317">
      <path
         id="path1319"
         style="fill:#ffffff;fill-opacity:1;stroke:none;stroke-width:0.332769;stroke-linejoin:round;stroke-miterlimit:4;stroke-dasharray:none"
         d="m -167.52121,130.50639 a 22.087523,22.087523 0 0 0 -21.93303,21.21628 12.363733,12.363733 0 0 0 -0.70487,-0.0202 12.363733,12.363733 0 0 0 -12.36358,12.36359 12.363733,12.363733 0 0 0 9.3369,11.98738 c 0.77218,0.24409 1.59501,0.37672 2.44998,0.37672 h 0.5767 45.90883 c 0.1082,0 0.21532,-0.004 0.32246,-0.008 a 14.602271,14.602271 0 0 0 0.48214,0.008 14.602271,14.602271 0 0 0 14.60221,-14.60272 14.602271,14.602271 0 0 0 -14.60221,-14.60221 14.602271,14.602271 0 0 0 -2.46238,0.20929 22.087523,22.087523 0 0 0 -21.47621,-16.92817 22.087523,22.087523 0 0 0 -0.13694,0 z" />
    </clipPath>
    <linearGradient
       id="linearGradient1303">
      <stop
         style="stop-color:#0090e1;stop-opacity:1"
         offset="0"
         id="stop1299" />
      <stop
         style="stop-color:#00a3ff;stop-opacity:1"
         offset="1"
         id="stop1301" />
    </linearGradient>
    <clipPath
       clipPathUnits="userSpaceOnUse"
       id="clipPath2404-3">
      <path
         id="path2406-6"
         style="opacity:1;fill:#ffffff;fill-opacity:1;stroke:none;stroke-width:0.332769;stroke-linejoin:round;stroke-miterlimit:4;stroke-dasharray:none;filter:url(#filter2400)"
         d="m -156.54037,192.13416 a 22.087523,22.087523 0 0 0 -21.93303,21.21628 12.363733,12.363733 0 0 0 -0.70487,-0.0202 12.363733,12.363733 0 0 0 -12.36358,12.36359 12.363733,12.363733 0 0 0 9.3369,11.98738 c 0.77218,0.24409 1.59501,0.37672 2.44998,0.37672 h 0.5767 45.90883 c 0.1082,0 0.21532,-0.004 0.32246,-0.008 a 14.602271,14.602271 0 0 0 0.48214,0.008 14.602271,14.602271 0 0 0 14.60221,-14.60272 14.602271,14.602271 0 0 0 -14.60221,-14.60221 14.602271,14.602271 0 0 0 -2.46238,0.20929 22.087523,22.087523 0 0 0 -21.47621,-16.92817 22.087523,22.087523 0 0 0 -0.13694,0 z" />
    </clipPath>
    <clipPath
       clipPathUnits="userSpaceOnUse"
       id="clipPath1317-7">
      <path
         id="path1319-5"
         style="fill:#ffffff;fill-opacity:1;stroke:none;stroke-width:0.332769;stroke-linejoin:round;stroke-miterlimit:4;stroke-dasharray:none"
         d="m -167.52121,130.50639 a 22.087523,22.087523 0 0 0 -21.93303,21.21628 12.363733,12.363733 0 0 0 -0.70487,-0.0202 12.363733,12.363733 0 0 0 -12.36358,12.36359 12.363733,12.363733 0 0 0 9.3369,11.98738 c 0.77218,0.24409 1.59501,0.37672 2.44998,0.37672 h 0.5767 45.90883 c 0.1082,0 0.21532,-0.004 0.32246,-0.008 a 14.602271,14.602271 0 0 0 0.48214,0.008 14.602271,14.602271 0 0 0 14.60221,-14.60272 14.602271,14.602271 0 0 0 -14.60221,-14.60221 14.602271,14.602271 0 0 0 -2.46238,0.20929 22.087523,22.087523 0 0 0 -21.47621,-16.92817 22.087523,22.087523 0 0 0 -0.13694,0 z" />
    </clipPath>
    <clipPath
       clipPathUnits="userSpaceOnUse"
       id="clipPath2404-36">
      <path
         id="path2406-0"
         style="opacity:1;fill:#ffffff;fill-opacity:1;stroke:none;stroke-width:0.332769;stroke-linejoin:round;stroke-miterlimit:4;stroke-dasharray:none;filter:url(#filter2400)"
         d="m -156.54037,192.13416 a 22.087523,22.087523 0 0 0 -21.93303,21.21628 12.363733,12.363733 0 0 0 -0.70487,-0.0202 12.363733,12.363733 0 0 0 -12.36358,12.36359 12.363733,12.363733 0 0 0 9.3369,11.98738 c 0.77218,0.24409 1.59501,0.37672 2.44998,0.37672 h 0.5767 45.90883 c 0.1082,0 0.21532,-0.004 0.32246,-0.008 a 14.602271,14.602271 0 0 0 0.48214,0.008 14.602271,14.602271 0 0 0 14.60221,-14.60272 14.602271,14.602271 0 0 0 -14.60221,-14.60221 14.602271,14.602271 0 0 0 -2.46238,0.20929 22.087523,22.087523 0 0 0 -21.47621,-16.92817 22.087523,22.087523 0 0 0 -0.13694,0 z" />
    </clipPath>
    <clipPath
       clipPathUnits="userSpaceOnUse"
       id="clipPath1317-6">
      <path
         id="path1319-1"
         style="fill:#ffffff;fill-opacity:1;stroke:none;stroke-width:0.332769;stroke-linejoin:round;stroke-miterlimit:4;stroke-dasharray:none"
         d="m -167.52121,130.50639 a 22.087523,22.087523 0 0 0 -21.93303,21.21628 12.363733,12.363733 0 0 0 -0.70487,-0.0202 12.363733,12.363733 0 0 0 -12.36358,12.36359 12.363733,12.363733 0 0 0 9.3369,11.98738 c 0.77218,0.24409 1.59501,0.37672 2.44998,0.37672 h 0.5767 45.90883 c 0.1082,0 0.21532,-0.004 0.32246,-0.008 a 14.602271,14.602271 0 0 0 0.48214,0.008 14.602271,14.602271 0 0 0 14.60221,-14.60272 14.602271,14.602271 0 0 0 -14.60221,-14.60221 14.602271,14.602271 0 0 0 -2.46238,0.20929 22.087523,22.087523 0 0 0 -21.47621,-16.92817 22.087523,22.087523 0 0 0 -0.13694,0 z" />
    </clipPath>
    <filter
       style="color-interpolation-filters:sRGB"
       id="filter3863"
       x="-0.072353475"
       width="1.144707"
       y="-0.11608218"
       height="1.2321644">
      <feGaussianBlur
         stdDeviation="2.2212282"
         id="feGaussianBlur3865" />
    </filter>
    <linearGradient
       xlink:href="#linearGradient1303"
       id="linearGradient3884"
       gradientUnits="userSpaceOnUse"
       gradientTransform="matrix(0.8636751,0,0,0.8636751,264.68781,36.417841)"
       x1="-189.25771"
       y1="136.90842"
       x2="-189.25771"
       y2="92.769196" />
    <clipPath
       clipPathUnits="userSpaceOnUse"
       id="clipPath2404-0">
      <path
         id="path2406-2"
         style="opacity:1;fill:#ffffff;fill-opacity:1;stroke:none;stroke-width:0.332769;stroke-linejoin:round;stroke-miterlimit:4;stroke-dasharray:none;filter:url(#filter2400)"
         d="m -156.54037,192.13416 a 22.087523,22.087523 0 0 0 -21.93303,21.21628 12.363733,12.363733 0 0 0 -0.70487,-0.0202 12.363733,12.363733 0 0 0 -12.36358,12.36359 12.363733,12.363733 0 0 0 9.3369,11.98738 c 0.77218,0.24409 1.59501,0.37672 2.44998,0.37672 h 0.5767 45.90883 c 0.1082,0 0.21532,-0.004 0.32246,-0.008 a 14.602271,14.602271 0 0 0 0.48214,0.008 14.602271,14.602271 0 0 0 14.60221,-14.60272 14.602271,14.602271 0 0 0 -14.60221,-14.60221 14.602271,14.602271 0 0 0 -2.46238,0.20929 22.087523,22.087523 0 0 0 -21.47621,-16.92817 22.087523,22.087523 0 0 0 -0.13694,0 z" />
    </clipPath>
    <filter
       style="color-interpolation-filters:sRGB"
       id="filter2900"
       x="-0.16382778"
       width="1.3276556"
       y="-0.26284134"
       height="1.5256827">
      <feGaussianBlur
         stdDeviation="5.0294596"
         id="feGaussianBlur2902" />
    </filter>
    <linearGradient
       xlink:href="#linearGradient1303"
       id="linearGradient3886"
       gradientUnits="userSpaceOnUse"
       gradientTransform="matrix(0.86367512,0,0,0.86367512,10.731084,49.91424)"
       x1="-189.25771"
       y1="136.90842"
       x2="-189.25771"
       y2="92.769196" />
    <clipPath
       clipPathUnits="userSpaceOnUse"
       id="clipPath1317-3">
      <path
         id="path1319-7"
         style="fill:#ffffff;fill-opacity:1;stroke:none;stroke-width:0.332769;stroke-linejoin:round;stroke-miterlimit:4;stroke-dasharray:none"
         d="m -167.52121,130.50639 a 22.087523,22.087523 0 0 0 -21.93303,21.21628 12.363733,12.363733 0 0 0 -0.70487,-0.0202 12.363733,12.363733 0 0 0 -12.36358,12.36359 12.363733,12.363733 0 0 0 9.3369,11.98738 c 0.77218,0.24409 1.59501,0.37672 2.44998,0.37672 h 0.5767 45.90883 c 0.1082,0 0.21532,-0.004 0.32246,-0.008 a 14.602271,14.602271 0 0 0 0.48214,0.008 14.602271,14.602271 0 0 0 14.60221,-14.60272 14.602271,14.602271 0 0 0 -14.60221,-14.60221 14.602271,14.602271 0 0 0 -2.46238,0.20929 22.087523,22.087523 0 0 0 -21.47621,-16.92817 22.087523,22.087523 0 0 0 -0.13694,0 z" />
    </clipPath>
    <filter
       style="color-interpolation-filters:sRGB"
       id="filter2071"
       x="-0.27220878"
       width="1.5444176"
       y="-0.43672514"
       height="1.8734503">
      <feGaussianBlur
         stdDeviation="8.2271054"
         id="feGaussianBlur2073" />
    </filter>
    <clipPath
       clipPathUnits="userSpaceOnUse"
       id="clipPath3236-5">
      <path
         id="path3238-9"
         style="fill:#ffdd55;stroke:none;stroke-width:0.529;stroke-linejoin:round;stroke-miterlimit:4;stroke-dasharray:none;filter:url(#filter3232)"
         d="m 217.59135,114.68595 c -0.54123,0 -0.9772,0.43545 -0.9772,0.97668 v 2.44895 a 17.808125,17.808125 0 0 0 -2.68149,0.35295 l -0.63356,-2.36523 c -0.14008,-0.52278 -0.67404,-0.831 -1.19682,-0.69092 -0.52279,0.14008 -0.83099,0.67405 -0.69092,1.19683 l 0.63407,2.36575 a 17.808125,17.808125 0 0 0 -2.49855,1.03456 l -1.22474,-2.1208 c -0.27061,-0.46872 -0.86556,-0.62822 -1.33428,-0.3576 -0.46872,0.27061 -0.62821,0.86556 -0.3576,1.33428 l 1.22421,2.1208 a 17.808125,17.808125 0 0 0 -2.1456,1.64693 l -1.73168,-1.73168 c -0.38271,-0.3827 -0.99912,-0.3827 -1.38183,0 -0.3827,0.38271 -0.3827,0.99861 0,1.38132 l 1.73168,1.73167 a 17.808125,17.808125 0 0 0 -1.64589,2.14613 l -2.12132,-1.22474 c -0.46872,-0.27061 -1.06419,-0.11111 -1.3348,0.3576 -0.27062,0.46872 -0.11112,1.06419 0.3576,1.33481 l 2.12131,1.22473 a 17.808125,17.808125 0 0 0 -1.03507,2.49855 l -2.36575,-0.63407 c -0.52279,-0.14008 -1.05623,0.16813 -1.19631,0.69092 -0.14008,0.52278 0.16761,1.05623 0.6904,1.19631 l 2.36574,0.63407 a 17.808125,17.808125 0 0 0 -0.35295,2.68149 h -2.44894 c -0.54123,0 -0.9772,0.43545 -0.9772,0.97668 0,0.54123 0.43597,0.9772 0.9772,0.9772 H 199.81 a 17.808125,17.808125 0 0 0 0.35295,2.68098 l -2.36574,0.63407 c -0.52279,0.14008 -0.83048,0.67403 -0.6904,1.19682 0.14008,0.52279 0.67352,0.831 1.19631,0.69092 l 2.36575,-0.63407 a 17.808125,17.808125 0 0 0 1.03507,2.49855 l -2.12131,1.22473 c -0.46872,0.27062 -0.62822,0.86557 -0.3576,1.33429 0.27061,0.46872 0.86608,0.62821 1.3348,0.3576 l 2.1208,-1.22421 a 17.808125,17.808125 0 0 0 1.64641,2.1456 l -1.73168,1.73168 c -0.3827,0.3827 -0.3827,0.99912 0,1.38182 0.38271,0.38271 0.99912,0.38271 1.38183,0 l 1.73168,-1.73167 a 17.808125,17.808125 0 0 0 2.14612,1.64641 l -1.22473,2.1208 c -0.27061,0.46872 -0.11112,1.06419 0.3576,1.3348 0.46872,0.27062 1.06367,0.11112 1.33428,-0.3576 l 1.22474,-2.12132 a 17.808125,17.808125 0 0 0 2.49855,1.03508 l -0.63407,2.36575 c -0.14008,0.52279 0.16813,1.05623 0.69092,1.19631 0.52278,0.14008 1.05674,-0.16761 1.19682,-0.6904 l 0.63407,-2.36575 a 17.808125,17.808125 0 0 0 2.68098,0.35295 v 2.44895 c 0,0.54123 0.43597,0.9772 0.9772,0.9772 0.54123,0 0.97668,-0.43597 0.97668,-0.9772 v -2.44895 a 17.808125,17.808125 0 0 0 2.68149,-0.35295 l 0.63407,2.36575 c 0.14008,0.52279 0.67352,0.83048 1.19631,0.6904 0.52279,-0.14008 0.83099,-0.67352 0.69091,-1.19631 l -0.63407,-2.36575 a 17.808125,17.808125 0 0 0 2.49856,-1.03508 l 1.22473,2.12132 c 0.27062,0.46872 0.86609,0.62821 1.3348,0.3576 0.46872,-0.27061 0.62822,-0.86608 0.3576,-1.3348 l -1.22473,-2.1208 a 17.808125,17.808125 0 0 0 2.14612,-1.64641 l 1.73168,1.73167 c 0.3827,0.38271 0.99861,0.38271 1.38131,0 0.38271,-0.3827 0.3827,-0.99912 0,-1.38182 l -1.73167,-1.73168 a 17.808125,17.808125 0 0 0 1.64692,-2.14612 l 2.12081,1.22473 c 0.46872,0.27061 1.06367,0.11112 1.33428,-0.3576 0.27061,-0.46872 0.11112,-1.06367 -0.3576,-1.33429 l -2.1208,-1.22473 a 17.808125,17.808125 0 0 0 1.03508,-2.49804 l 2.36523,0.63356 c 0.52279,0.14008 1.05674,-0.16813 1.19682,-0.69092 0.14008,-0.52279 -0.16812,-1.05674 -0.69091,-1.19682 l -2.36575,-0.63407 a 17.808125,17.808125 0 0 0 0.35295,-2.68098 h 2.44947 c 0.54123,0 0.97668,-0.43597 0.97668,-0.9772 0,-0.54123 -0.43545,-0.97668 -0.97668,-0.97668 h -2.44895 a 17.808125,17.808125 0 0 0 -0.35295,-2.68149 l 2.36523,-0.63407 c 0.52279,-0.14008 0.83099,-0.67352 0.69091,-1.19631 -0.14008,-0.52279 -0.67403,-0.831 -1.19682,-0.69092 l -2.36523,0.63356 a 17.808125,17.808125 0 0 0 -1.03508,-2.49804 l 2.1208,-1.22473 c 0.46872,-0.27062 0.62822,-0.86609 0.3576,-1.33481 -0.27061,-0.46871 -0.86557,-0.62821 -1.33428,-0.3576 l -2.12132,1.22474 a 17.808125,17.808125 0 0 0 -1.64641,-2.14613 l 1.73167,-1.73167 c 0.38271,-0.38271 0.38271,-0.99861 0,-1.38132 -0.3827,-0.3827 -0.9986,-0.3827 -1.38131,0 l -1.73168,1.73168 a 17.808125,17.808125 0 0 0 -2.14612,-1.64641 l 1.22473,-2.12132 c 0.27062,-0.46872 0.11112,-1.06367 -0.3576,-1.33428 -0.46872,-0.27062 -1.06418,-0.11112 -1.3348,0.3576 l -1.22421,2.1208 a 17.808125,17.808125 0 0 0 -2.49856,-1.03508 l 0.63355,-2.36523 c 0.14008,-0.52279 -0.16812,-1.05675 -0.69091,-1.19683 -0.52279,-0.14008 -1.05623,0.16813 -1.19631,0.69092 l -0.63407,2.36575 a 17.808125,17.808125 0 0 0 -2.68149,-0.35296 v -2.44946 c 0,-0.54123 -0.43545,-0.97668 -0.97668,-0.97668 z"
         transform="matrix(1.4253473,0,0,1.4253473,-92.55179,-57.801801)" />
    </clipPath>
    <filter
       style="color-interpolation-filters:sRGB"
       id="filter3856"
       x="-0.17937033"
       width="1.3587407"
       y="-0.17937033"
       height="1.3587407">
      <feGaussianBlur
         stdDeviation="3.1699566"
         id="feGaussianBlur3858" />
    </filter>
  </defs>
  <metadata
     id="metadata4000">
    <rdf:RDF>
      <cc:Work
         rdf:about="">
        <dc:format>image/svg+xml</dc:format>
        <dc:type
           rdf:resource="http://purl.org/dc/dcmitype/StillImage" />
        <dc:title></dc:title>
      </cc:Work>
    </rdf:RDF>
  </metadata>
  <g
     id="layer1">
    <g
       id="g3940"
       transform="matrix(0.62150715,0,0,0.62150715,-27.255641,-45.851599)">
      <path
         id="path1667"
         style="fill:#ffdd55;stroke:none;stroke-width:0.529;stroke-linejoin:round;stroke-miterlimit:4;stroke-dasharray:none"
         d="m 116.80288,107.79967 c -0.54123,0 -0.9772,0.43545 -0.9772,0.97668 v 2.44895 a 17.808125,17.808125 0 0 0 -2.68149,0.35295 l -0.63356,-2.36523 c -0.14008,-0.52278 -0.67404,-0.831 -1.19682,-0.69092 -0.52279,0.14008 -0.83099,0.67405 -0.69092,1.19683 l 0.63407,2.36575 a 17.808125,17.808125 0 0 0 -2.49855,1.03456 l -1.22474,-2.1208 c -0.27061,-0.46872 -0.86556,-0.62822 -1.33428,-0.3576 -0.46872,0.27061 -0.62821,0.86556 -0.3576,1.33428 l 1.22421,2.1208 a 17.808125,17.808125 0 0 0 -2.1456,1.64693 l -1.73168,-1.73168 c -0.38271,-0.3827 -0.99912,-0.3827 -1.38183,0 -0.3827,0.38271 -0.3827,0.99861 0,1.38132 l 1.73168,1.73167 a 17.808125,17.808125 0 0 0 -1.64589,2.14613 l -2.121324,-1.22474 c -0.46872,-0.27061 -1.06419,-0.11111 -1.3348,0.3576 -0.27062,0.46872 -0.11112,1.06419 0.3576,1.33481 l 2.121314,1.22473 a 17.808125,17.808125 0 0 0 -1.035074,2.49855 l -2.36575,-0.63407 c -0.52279,-0.14008 -1.05623,0.16813 -1.19631,0.69092 -0.14008,0.52278 0.16761,1.05623 0.6904,1.19631 l 2.36574,0.63407 a 17.808125,17.808125 0 0 0 -0.35295,2.68149 h -2.44894 c -0.54123,0 -0.9772,0.43545 -0.9772,0.97668 0,0.54123 0.43597,0.9772 0.9772,0.9772 h 2.44894 a 17.808125,17.808125 0 0 0 0.35295,2.68098 l -2.36574,0.63407 c -0.52279,0.14008 -0.83048,0.67403 -0.6904,1.19682 0.14008,0.52279 0.67352,0.831 1.19631,0.69092 l 2.36575,-0.63407 a 17.808125,17.808125 0 0 0 1.035074,2.49855 l -2.121314,1.22473 c -0.46872,0.27062 -0.62822,0.86557 -0.3576,1.33429 0.27061,0.46872 0.86608,0.62821 1.3348,0.3576 l 2.120804,-1.22421 a 17.808125,17.808125 0 0 0 1.64641,2.1456 l -1.73168,1.73168 c -0.3827,0.3827 -0.3827,0.99912 0,1.38182 0.38271,0.38271 0.99912,0.38271 1.38183,0 l 1.73168,-1.73167 a 17.808125,17.808125 0 0 0 2.14612,1.64641 l -1.22473,2.1208 c -0.27061,0.46872 -0.11112,1.06419 0.3576,1.3348 0.46872,0.27062 1.06367,0.11112 1.33428,-0.3576 l 1.22474,-2.12132 a 17.808125,17.808125 0 0 0 2.49855,1.03508 l -0.63407,2.36575 c -0.14008,0.52279 0.16813,1.05623 0.69092,1.19631 0.52278,0.14008 1.05674,-0.16761 1.19682,-0.6904 l 0.63407,-2.36575 a 17.808125,17.808125 0 0 0 2.68098,0.35295 v 2.44895 c 0,0.54123 0.43597,0.9772 0.9772,0.9772 0.54123,0 0.97668,-0.43597 0.97668,-0.9772 v -2.44895 a 17.808125,17.808125 0 0 0 2.68149,-0.35295 l 0.63407,2.36575 c 0.14008,0.52279 0.67352,0.83048 1.19631,0.6904 0.52279,-0.14008 0.83099,-0.67352 0.69091,-1.19631 l -0.63407,-2.36575 a 17.808125,17.808125 0 0 0 2.49856,-1.03508 l 1.22473,2.12132 c 0.27062,0.46872 0.86609,0.62821 1.3348,0.3576 0.46872,-0.27061 0.62822,-0.86608 0.3576,-1.3348 l -1.22473,-2.1208 a 17.808125,17.808125 0 0 0 2.14612,-1.64641 l 1.73168,1.73167 c 0.3827,0.38271 0.99861,0.38271 1.38131,0 0.38271,-0.3827 0.3827,-0.99912 0,-1.38182 l -1.73167,-1.73168 a 17.808125,17.808125 0 0 0 1.64692,-2.14612 l 2.12081,1.22473 c 0.46872,0.27061 1.06367,0.11112 1.33428,-0.3576 0.27061,-0.46872 0.11112,-1.06367 -0.3576,-1.33429 l -2.1208,-1.22473 a 17.808125,17.808125 0 0 0 1.03508,-2.49804 l 2.36523,0.63356 c 0.52279,0.14008 1.05674,-0.16813 1.19682,-0.69092 0.14008,-0.52279 -0.16812,-1.05674 -0.69091,-1.19682 l -2.36575,-0.63407 a 17.808125,17.808125 0 0 0 0.35295,-2.68098 h 2.44947 c 0.54123,0 0.97668,-0.43597 0.97668,-0.9772 0,-0.54123 -0.43545,-0.97668 -0.97668,-0.97668 h -2.44895 a 17.808125,17.808125 0 0 0 -0.35295,-2.68149 l 2.36523,-0.63407 c 0.52279,-0.14008 0.83099,-0.67352 0.69091,-1.19631 -0.14008,-0.52279 -0.67403,-0.831 -1.19682,-0.69092 l -2.36523,0.63356 a 17.808125,17.808125 0 0 0 -1.03508,-2.49804 l 2.1208,-1.22473 c 0.46872,-0.27062 0.62822,-0.86609 0.3576,-1.33481 -0.27061,-0.46871 -0.86557,-0.62821 -1.33428,-0.3576 l -2.12132,1.22474 a 17.808125,17.808125 0 0 0 -1.64641,-2.14613 l 1.73167,-1.73167 c 0.38271,-0.38271 0.38271,-0.99861 0,-1.38132 -0.3827,-0.3827 -0.9986,-0.3827 -1.38131,0 l -1.73168,1.73168 a 17.808125,17.808125 0 0 0 -2.14612,-1.64641 l 1.22473,-2.12132 c 0.27062,-0.46872 0.11112,-1.06367 -0.3576,-1.33428 -0.46872,-0.27062 -1.06418,-0.11112 -1.3348,0.3576 l -1.22421,2.1208 a 17.808125,17.808125 0 0 0 -2.49856,-1.03508 l 0.63355,-2.36523 c 0.14008,-0.52279 -0.16812,-1.05675 -0.69091,-1.19683 -0.52279,-0.14008 -1.05623,0.16813 -1.19631,0.69092 l -0.63407,2.36575 a 17.808125,17.808125 0 0 0 -2.68149,-0.35296 v -2.44946 c 0,-0.54123 -0.43545,-0.97668 -0.97668,-0.97668 z" />
      <path
         id="path3860"
         style="fill:#ffffff;fill-opacity:1;stroke:none;stroke-width:0.332769;stroke-linejoin:round;stroke-miterlimit:4;stroke-dasharray:none"
         d="m 86.43555,117.01021 a 22.087523,22.087523 0 0 0 -21.93303,21.21627 12.363733,12.363733 0 0 0 -0.70487,-0.0202 12.363733,12.363733 0 0 0 -12.36358,12.36359 12.363733,12.363733 0 0 0 9.3369,11.98738 c 0.77218,0.24409 1.59501,0.37672 2.44998,0.37672 h 0.5767 45.90883 c 0.1082,0 0.21532,-0.004 0.32246,-0.008 a 14.602271,14.602271 0 0 0 0.48214,0.008 14.602271,14.602271 0 0 0 14.60221,-14.60272 14.602271,14.602271 0 0 0 -14.60221,-14.60221 14.602271,14.602271 0 0 0 -2.46238,0.20929 22.087523,22.087523 0 0 0 -21.47621,-16.92816 22.087523,22.087523 0 0 0 -0.13694,0 z" />
      <path
         id="path3862"
         style="opacity:0.362847;fill:#ffffff;fill-opacity:1;stroke:none;stroke-width:0.332769;stroke-linejoin:round;stroke-miterlimit:4;stroke-dasharray:none;filter:url(#filter3863)"
         d="m 86.43555,117.0102 a 22.087523,22.087523 0 0 0 -21.93303,21.21628 12.363733,12.363733 0 0 0 -0.70487,-0.0202 12.363733,12.363733 0 0 0 -12.36358,12.36359 12.363733,12.363733 0 0 0 9.3369,11.98738 c 0.77218,0.24409 1.59501,0.37672 2.44998,0.37672 h 0.5767 45.90883 c 0.1082,0 0.21532,-0.004 0.32246,-0.008 a 14.602271,14.602271 0 0 0 0.48214,0.008 14.602271,14.602271 0 0 0 14.60221,-14.60272 14.602271,14.602271 0 0 0 -14.60221,-14.60221 14.602271,14.602271 0 0 0 -2.46238,0.20929 22.087523,22.087523 0 0 0 -21.47621,-16.92817 22.087523,22.087523 0 0 0 -0.13694,0 z" />
      <path
         id="path3864"
         style="fill:url(#linearGradient3884);fill-opacity:1;stroke:none;stroke-width:1.14258;stroke-linejoin:round;stroke-miterlimit:4;stroke-dasharray:none;stroke-opacity:1"
         d="m 96.553378,114.02286 a 21.744935,21.744935 0 0 0 -10.897008,3.00602 22.087523,22.087523 0 0 1 0.77928,-0.0191 22.087523,22.087523 0 0 1 0.13694,0 22.087523,22.087523 0 0 1 21.47621,16.92816 14.602271,14.602271 0 0 1 2.46239,-0.20929 14.602271,14.602271 0 0 1 14.6022,14.60221 14.602271,14.602271 0 0 1 -4.88859,10.90321 14.375782,14.375782 0 0 0 0.0305,0 14.375782,14.375782 0 0 0 14.37587,-14.37586 14.375782,14.375782 0 0 0 -14.37587,-14.37587 14.375782,14.375782 0 0 0 -2.42414,0.20619 21.744935,21.744935 0 0 0 -21.142892,-16.66565 21.744935,21.744935 0 0 0 -0.13488,0 z" />
      <path
         id="path3866"
         style="fill:#ffffff;fill-opacity:1;stroke:none;stroke-width:0.332769;stroke-linejoin:round;stroke-miterlimit:4;stroke-dasharray:none;filter:url(#filter2900)"
         d="m -156.54037,192.13416 a 22.087523,22.087523 0 0 0 -21.93303,21.21628 12.363733,12.363733 0 0 0 -0.70487,-0.0202 12.363733,12.363733 0 0 0 -12.36358,12.36359 12.363733,12.363733 0 0 0 9.3369,11.98738 c 0.77218,0.24409 1.59501,0.37672 2.44998,0.37672 h 0.5767 45.90883 c 0.1082,0 0.21532,-0.004 0.32246,-0.008 a 14.602271,14.602271 0 0 0 0.48214,0.008 14.602271,14.602271 0 0 0 14.60221,-14.60272 14.602271,14.602271 0 0 0 -14.60221,-14.60221 14.602271,14.602271 0 0 0 -2.46238,0.20929 22.087523,22.087523 0 0 0 -21.47621,-16.92817 22.087523,22.087523 0 0 0 -0.13694,0 z"
         clip-path="url(#clipPath2404-0)"
         transform="translate(242.97592,-75.12396)" />
      <path
         id="path3868"
         style="opacity:0.625985;fill:url(#linearGradient3886);fill-opacity:1;stroke:none;stroke-width:1.14258;stroke-linejoin:round;stroke-miterlimit:4;stroke-dasharray:none;stroke-opacity:1;filter:url(#filter2071)"
         d="m -157.40352,127.51904 a 21.744935,21.744935 0 0 0 -21.59284,20.88722 12.171965,12.171965 0 0 0 -0.69394,-0.0198 12.171965,12.171965 0 0 0 -12.17182,12.17182 12.171965,12.171965 0 0 0 9.19208,11.80145 c 0.76021,0.2403 1.57028,0.37088 2.41199,0.37088 h 0.56775 45.19676 c 0.10653,0 0.21198,-0.004 0.31746,-0.008 a 14.375782,14.375782 0 0 0 0.47466,0.008 14.375782,14.375782 0 0 0 14.37573,-14.37623 14.375782,14.375782 0 0 0 -14.37573,-14.37571 14.375782,14.375782 0 0 0 -2.42419,0.20603 21.744935,21.744935 0 0 0 -21.14309,-16.66561 21.744935,21.744935 0 0 0 -0.13482,0 z"
         clip-path="url(#clipPath1317-3)"
         transform="translate(253.95676,-13.496188)" />
      <path
         id="path3896"
         style="opacity:0.460856;fill:#ffdd55;stroke:none;stroke-width:0.529;stroke-linejoin:round;stroke-miterlimit:4;stroke-dasharray:none;filter:url(#filter3856)"
         d="m 217.59135,114.68595 c -0.54123,0 -0.9772,0.43545 -0.9772,0.97668 v 2.44895 a 17.808125,17.808125 0 0 0 -2.68149,0.35295 l -0.63356,-2.36523 c -0.14008,-0.52278 -0.67404,-0.831 -1.19682,-0.69092 -0.52279,0.14008 -0.83099,0.67405 -0.69092,1.19683 l 0.63407,2.36575 a 17.808125,17.808125 0 0 0 -2.49855,1.03456 l -1.22474,-2.1208 c -0.27061,-0.46872 -0.86556,-0.62822 -1.33428,-0.3576 -0.46872,0.27061 -0.62821,0.86556 -0.3576,1.33428 l 1.22421,2.1208 a 17.808125,17.808125 0 0 0 -2.1456,1.64693 l -1.73168,-1.73168 c -0.38271,-0.3827 -0.99912,-0.3827 -1.38183,0 -0.3827,0.38271 -0.3827,0.99861 0,1.38132 l 1.73168,1.73167 a 17.808125,17.808125 0 0 0 -1.64589,2.14613 l -2.12132,-1.22474 c -0.46872,-0.27061 -1.06419,-0.11111 -1.3348,0.3576 -0.27062,0.46872 -0.11112,1.06419 0.3576,1.33481 l 2.12131,1.22473 a 17.808125,17.808125 0 0 0 -1.03507,2.49855 l -2.36575,-0.63407 c -0.52279,-0.14008 -1.05623,0.16813 -1.19631,0.69092 -0.14008,0.52278 0.16761,1.05623 0.6904,1.19631 l 2.36574,0.63407 a 17.808125,17.808125 0 0 0 -0.35295,2.68149 h -2.44894 c -0.54123,0 -0.9772,0.43545 -0.9772,0.97668 0,0.54123 0.43597,0.9772 0.9772,0.9772 H 199.81 a 17.808125,17.808125 0 0 0 0.35295,2.68098 l -2.36574,0.63407 c -0.52279,0.14008 -0.83048,0.67403 -0.6904,1.19682 0.14008,0.52279 0.67352,0.831 1.19631,0.69092 l 2.36575,-0.63407 a 17.808125,17.808125 0 0 0 1.03507,2.49855 l -2.12131,1.22473 c -0.46872,0.27062 -0.62822,0.86557 -0.3576,1.33429 0.27061,0.46872 0.86608,0.62821 1.3348,0.3576 l 2.1208,-1.22421 a 17.808125,17.808125 0 0 0 1.64641,2.1456 l -1.73168,1.73168 c -0.3827,0.3827 -0.3827,0.99912 0,1.38182 0.38271,0.38271 0.99912,0.38271 1.38183,0 l 1.73168,-1.73167 a 17.808125,17.808125 0 0 0 2.14612,1.64641 l -1.22473,2.1208 c -0.27061,0.46872 -0.11112,1.06419 0.3576,1.3348 0.46872,0.27062 1.06367,0.11112 1.33428,-0.3576 l 1.22474,-2.12132 a 17.808125,17.808125 0 0 0 2.49855,1.03508 l -0.63407,2.36575 c -0.14008,0.52279 0.16813,1.05623 0.69092,1.19631 0.52278,0.14008 1.05674,-0.16761 1.19682,-0.6904 l 0.63407,-2.36575 a 17.808125,17.808125 0 0 0 2.68098,0.35295 v 2.44895 c 0,0.54123 0.43597,0.9772 0.9772,0.9772 0.54123,0 0.97668,-0.43597 0.97668,-0.9772 v -2.44895 a 17.808125,17.808125 0 0 0 2.68149,-0.35295 l 0.63407,2.36575 c 0.14008,0.52279 0.67352,0.83048 1.19631,0.6904 0.52279,-0.14008 0.83099,-0.67352 0.69091,-1.19631 l -0.63407,-2.36575 a 17.808125,17.808125 0 0 0 2.49856,-1.03508 l 1.22473,2.12132 c 0.27062,0.46872 0.86609,0.62821 1.3348,0.3576 0.46872,-0.27061 0.62822,-0.86608 0.3576,-1.3348 l -1.22473,-2.1208 a 17.808125,17.808125 0 0 0 2.14612,-1.64641 l 1.73168,1.73167 c 0.3827,0.38271 0.99861,0.38271 1.38131,0 0.38271,-0.3827 0.3827,-0.99912 0,-1.38182 l -1.73167,-1.73168 a 17.808125,17.808125 0 0 0 1.64692,-2.14612 l 2.12081,1.22473 c 0.46872,0.27061 1.06367,0.11112 1.33428,-0.3576 0.27061,-0.46872 0.11112,-1.06367 -0.3576,-1.33429 l -2.1208,-1.22473 a 17.808125,17.808125 0 0 0 1.03508,-2.49804 l 2.36523,0.63356 c 0.52279,0.14008 1.05674,-0.16813 1.19682,-0.69092 0.14008,-0.52279 -0.16812,-1.05674 -0.69091,-1.19682 l -2.36575,-0.63407 a 17.808125,17.808125 0 0 0 0.35295,-2.68098 h 2.44947 c 0.54123,0 0.97668,-0.43597 0.97668,-0.9772 0,-0.54123 -0.43545,-0.97668 -0.97668,-0.97668 h -2.44895 a 17.808125,17.808125 0 0 0 -0.35295,-2.68149 l 2.36523,-0.63407 c 0.52279,-0.14008 0.83099,-0.67352 0.69091,-1.19631 -0.14008,-0.52279 -0.67403,-0.831 -1.19682,-0.69092 l -2.36523,0.63356 a 17.808125,17.808125 0 0 0 -1.03508,-2.49804 l 2.1208,-1.22473 c 0.46872,-0.27062 0.62822,-0.86609 0.3576,-1.33481 -0.27061,-0.46871 -0.86557,-0.62821 -1.33428,-0.3576 l -2.12132,1.22474 a 17.808125,17.808125 0 0 0 -1.64641,-2.14613 l 1.73167,-1.73167 c 0.38271,-0.38271 0.38271,-0.99861 0,-1.38132 -0.3827,-0.3827 -0.9986,-0.3827 -1.38131,0 l -1.73168,1.73168 a 17.808125,17.808125 0 0 0 -2.14612,-1.64641 l 1.22473,-2.12132 c 0.27062,-0.46872 0.11112,-1.06367 -0.3576,-1.33428 -0.46872,-0.27062 -1.06418,-0.11112 -1.3348,0.3576 l -1.22421,2.1208 a 17.808125,17.808125 0 0 0 -2.49856,-1.03508 l 0.63355,-2.36523 c 0.14008,-0.52279 -0.16812,-1.05675 -0.69091,-1.19683 -0.52279,-0.14008 -1.05623,0.16813 -1.19631,0.69092 l -0.63407,2.36575 a 17.808125,17.808125 0 0 0 -2.68149,-0.35296 v -2.44946 c 0,-0.54123 -0.43545,-0.97668 -0.97668,-0.97668 z"
         clip-path="url(#clipPath3236-5)"
         transform="matrix(1.2990367,0,0,1.2990367,-165.85619,-47.523329)" />
    </g>
  </g>
</svg>
