<?xml version="1.0" encoding="UTF-8" standalone="no"?>
<svg
   xmlns:dc="http://purl.org/dc/elements/1.1/"
   xmlns:cc="http://creativecommons.org/ns#"
   xmlns:rdf="http://www.w3.org/1999/02/22-rdf-syntax-ns#"
   xmlns:svg="http://www.w3.org/2000/svg"
   xmlns="http://www.w3.org/2000/svg"
   xmlns:xlink="http://www.w3.org/1999/xlink"
   width="70mm"
   height="70mm"
   viewBox="0 0 70 70"
   version="1.1"
   id="svg4003">
  <defs
     id="defs3997">
    <clipPath
       clipPathUnits="userSpaceOnUse"
       id="clipPath3236">
      <path
         id="path3238"
         style="fill:#ffdd55;stroke:none;stroke-width:0.529;stroke-linejoin:round;stroke-miterlimit:4;stroke-dasharray:none;filter:url(#filter3232)"
         d="m 217.59135,114.68595 c -0.54123,0 -0.9772,0.43545 -0.9772,0.97668 v 2.44895 a 17.808125,17.808125 0 0 0 -2.68149,0.35295 l -0.63356,-2.36523 c -0.14008,-0.52278 -0.67404,-0.831 -1.19682,-0.69092 -0.52279,0.14008 -0.83099,0.67405 -0.69092,1.19683 l 0.63407,2.36575 a 17.808125,17.808125 0 0 0 -2.49855,1.03456 l -1.22474,-2.1208 c -0.27061,-0.46872 -0.86556,-0.62822 -1.33428,-0.3576 -0.46872,0.27061 -0.62821,0.86556 -0.3576,1.33428 l 1.22421,2.1208 a 17.808125,17.808125 0 0 0 -2.1456,1.64693 l -1.73168,-1.73168 c -0.38271,-0.3827 -0.99912,-0.3827 -1.38183,0 -0.3827,0.38271 -0.3827,0.99861 0,1.38132 l 1.73168,1.73167 a 17.808125,17.808125 0 0 0 -1.64589,2.14613 l -2.12132,-1.22474 c -0.46872,-0.27061 -1.06419,-0.11111 -1.3348,0.3576 -0.27062,0.46872 -0.11112,1.06419 0.3576,1.33481 l 2.12131,1.22473 a 17.808125,17.808125 0 0 0 -1.03507,2.49855 l -2.36575,-0.63407 c -0.52279,-0.14008 -1.05623,0.16813 -1.19631,0.69092 -0.14008,0.52278 0.16761,1.05623 0.6904,1.19631 l 2.36574,0.63407 a 17.808125,17.808125 0 0 0 -0.35295,2.68149 h -2.44894 c -0.54123,0 -0.9772,0.43545 -0.9772,0.97668 0,0.54123 0.43597,0.9772 0.9772,0.9772 H 199.81 a 17.808125,17.808125 0 0 0 0.35295,2.68098 l -2.36574,0.63407 c -0.52279,0.14008 -0.83048,0.67403 -0.6904,1.19682 0.14008,0.52279 0.67352,0.831 1.19631,0.69092 l 2.36575,-0.63407 a 17.808125,17.808125 0 0 0 1.03507,2.49855 l -2.12131,1.22473 c -0.46872,0.27062 -0.62822,0.86557 -0.3576,1.33429 0.27061,0.46872 0.86608,0.62821 1.3348,0.3576 l 2.1208,-1.22421 a 17.808125,17.808125 0 0 0 1.64641,2.1456 l -1.73168,1.73168 c -0.3827,0.3827 -0.3827,0.99912 0,1.38182 0.38271,0.38271 0.99912,0.38271 1.38183,0 l 1.73168,-1.73167 a 17.808125,17.808125 0 0 0 2.14612,1.64641 l -1.22473,2.1208 c -0.27061,0.46872 -0.11112,1.06419 0.3576,1.3348 0.46872,0.27062 1.06367,0.11112 1.33428,-0.3576 l 1.22474,-2.12132 a 17.808125,17.808125 0 0 0 2.49855,1.03508 l -0.63407,2.36575 c -0.14008,0.52279 0.16813,1.05623 0.69092,1.19631 0.52278,0.14008 1.05674,-0.16761 1.19682,-0.6904 l 0.63407,-2.36575 a 17.808125,17.808125 0 0 0 2.68098,0.35295 v 2.44895 c 0,0.54123 0.43597,0.9772 0.9772,0.9772 0.54123,0 0.97668,-0.43597 0.97668,-0.9772 v -2.44895 a 17.808125,17.808125 0 0 0 2.68149,-0.35295 l 0.63407,2.36575 c 0.14008,0.52279 0.67352,0.83048 1.19631,0.6904 0.52279,-0.14008 0.83099,-0.67352 0.69091,-1.19631 l -0.63407,-2.36575 a 17.808125,17.808125 0 0 0 2.49856,-1.03508 l 1.22473,2.12132 c 0.27062,0.46872 0.86609,0.62821 1.3348,0.3576 0.46872,-0.27061 0.62822,-0.86608 0.3576,-1.3348 l -1.22473,-2.1208 a 17.808125,17.808125 0 0 0 2.14612,-1.64641 l 1.73168,1.73167 c 0.3827,0.38271 0.99861,0.38271 1.38131,0 0.38271,-0.3827 0.3827,-0.99912 0,-1.38182 l -1.73167,-1.73168 a 17.808125,17.808125 0 0 0 1.64692,-2.14612 l 2.12081,1.22473 c 0.46872,0.27061 1.06367,0.11112 1.33428,-0.3576 0.27061,-0.46872 0.11112,-1.06367 -0.3576,-1.33429 l -2.1208,-1.22473 a 17.808125,17.808125 0 0 0 1.03508,-2.49804 l 2.36523,0.63356 c 0.52279,0.14008 1.05674,-0.16813 1.19682,-0.69092 0.14008,-0.52279 -0.16812,-1.05674 -0.69091,-1.19682 l -2.36575,-0.63407 a 17.808125,17.808125 0 0 0 0.35295,-2.68098 h 2.44947 c 0.54123,0 0.97668,-0.43597 0.97668,-0.9772 0,-0.54123 -0.43545,-0.97668 -0.97668,-0.97668 h -2.44895 a 17.808125,17.808125 0 0 0 -0.35295,-2.68149 l 2.36523,-0.63407 c 0.52279,-0.14008 0.83099,-0.67352 0.69091,-1.19631 -0.14008,-0.52279 -0.67403,-0.831 -1.19682,-0.69092 l -2.36523,0.63356 a 17.808125,17.808125 0 0 0 -1.03508,-2.49804 l 2.1208,-1.22473 c 0.46872,-0.27062 0.62822,-0.86609 0.3576,-1.33481 -0.27061,-0.46871 -0.86557,-0.62821 -1.33428,-0.3576 l -2.12132,1.22474 a 17.808125,17.808125 0 0 0 -1.64641,-2.14613 l 1.73167,-1.73167 c 0.38271,-0.38271 0.38271,-0.99861 0,-1.38132 -0.3827,-0.3827 -0.9986,-0.3827 -1.38131,0 l -1.73168,1.73168 a 17.808125,17.808125 0 0 0 -2.14612,-1.64641 l 1.22473,-2.12132 c 0.27062,-0.46872 0.11112,-1.06367 -0.3576,-1.33428 -0.46872,-0.27062 -1.06418,-0.11112 -1.3348,0.3576 l -1.22421,2.1208 a 17.808125,17.808125 0 0 0 -2.49856,-1.03508 l 0.63355,-2.36523 c 0.14008,-0.52279 -0.16812,-1.05675 -0.69091,-1.19683 -0.52279,-0.14008 -1.05623,0.16813 -1.19631,0.69092 l -0.63407,2.36575 a 17.808125,17.808125 0 0 0 -2.68149,-0.35296 v -2.44946 c 0,-0.54123 -0.43545,-0.97668 -0.97668,-0.97668 z"
         transform="matrix(1.4253473,0,0,1.4253473,-92.55179,-57.801801)" />
    </clipPath>
    <clipPath
       clipPathUnits="userSpaceOnUse"
       id="clipPath2404">
      <path
         id="path2406"
         style="opacity:1;fill:#ffffff;fill-opacity:1;stroke:none;stroke-width:0.332769;stroke-linejoin:round;stroke-miterlimit:4;stroke-dasharray:none;filter:url(#filter2400)"
         d="m -156.54037,192.13416 a 22.087523,22.087523 0 0 0 -21.93303,21.21628 12.363733,12.363733 0 0 0 -0.70487,-0.0202 12.363733,12.363733 0 0 0 -12.36358,12.36359 12.363733,12.363733 0 0 0 9.3369,11.98738 c 0.77218,0.24409 1.59501,0.37672 2.44998,0.37672 h 0.5767 45.90883 c 0.1082,0 0.21532,-0.004 0.32246,-0.008 a 14.602271,14.602271 0 0 0 0.48214,0.008 14.602271,14.602271 0 0 0 14.60221,-14.60272 14.602271,14.602271 0 0 0 -14.60221,-14.60221 14.602271,14.602271 0 0 0 -2.46238,0.20929 22.087523,22.087523 0 0 0 -21.47621,-16.92817 22.087523,22.087523 0 0 0 -0.13694,0 z" />
    </clipPath>
    <clipPath
       clipPathUnits="userSpaceOnUse"
       id="clipPath1317">
      <path
         id="path1319"
         style="fill:#ffffff;fill-opacity:1;stroke:none;stroke-width:0.332769;stroke-linejoin:round;stroke-miterlimit:4;stroke-dasharray:none"
         d="m -167.52121,130.50639 a 22.087523,22.087523 0 0 0 -21.93303,21.21628 12.363733,12.363733 0 0 0 -0.70487,-0.0202 12.363733,12.363733 0 0 0 -12.36358,12.36359 12.363733,12.363733 0 0 0 9.3369,11.98738 c 0.77218,0.24409 1.59501,0.37672 2.44998,0.37672 h 0.5767 45.90883 c 0.1082,0 0.21532,-0.004 0.32246,-0.008 a 14.602271,14.602271 0 0 0 0.48214,0.008 14.602271,14.602271 0 0 0 14.60221,-14.60272 14.602271,14.602271 0 0 0 -14.60221,-14.60221 14.602271,14.602271 0 0 0 -2.46238,0.20929 22.087523,22.087523 0 0 0 -21.47621,-16.92817 22.087523,22.087523 0 0 0 -0.13694,0 z" />
    </clipPath>
    <filter
       style="color-interpolation-filters:sRGB"
       id="filter3863"
       x="-0.072353475"
       width="1.144707"
       y="-0.11608218"
       height="1.2321644">
      <feGaussianBlur
         stdDeviation="2.2212282"
         id="feGaussianBlur3865" />
    </filter>
    <linearGradient
       xlink:href="#linearGradient1303"
       id="linearGradient2934"
       gradientUnits="userSpaceOnUse"
       gradientTransform="matrix(0.8636751,0,0,0.8636751,72.426214,15.685801)"
       x1="-189.25771"
       y1="136.90842"
       x2="-189.25771"
       y2="92.769196" />
    <linearGradient
       id="linearGradient1303">
      <stop
         style="stop-color:#0090e1;stop-opacity:1"
         offset="0"
         id="stop1299" />
      <stop
         style="stop-color:#00a3ff;stop-opacity:1"
         offset="1"
         id="stop1301" />
    </linearGradient>
    <clipPath
       clipPathUnits="userSpaceOnUse"
       id="clipPath2404-3">
      <path
         id="path2406-6"
         style="opacity:1;fill:#ffffff;fill-opacity:1;stroke:none;stroke-width:0.332769;stroke-linejoin:round;stroke-miterlimit:4;stroke-dasharray:none;filter:url(#filter2400)"
         d="m -156.54037,192.13416 a 22.087523,22.087523 0 0 0 -21.93303,21.21628 12.363733,12.363733 0 0 0 -0.70487,-0.0202 12.363733,12.363733 0 0 0 -12.36358,12.36359 12.363733,12.363733 0 0 0 9.3369,11.98738 c 0.77218,0.24409 1.59501,0.37672 2.44998,0.37672 h 0.5767 45.90883 c 0.1082,0 0.21532,-0.004 0.32246,-0.008 a 14.602271,14.602271 0 0 0 0.48214,0.008 14.602271,14.602271 0 0 0 14.60221,-14.60272 14.602271,14.602271 0 0 0 -14.60221,-14.60221 14.602271,14.602271 0 0 0 -2.46238,0.20929 22.087523,22.087523 0 0 0 -21.47621,-16.92817 22.087523,22.087523 0 0 0 -0.13694,0 z" />
    </clipPath>
    <filter
       style="color-interpolation-filters:sRGB"
       id="filter2900"
       x="-0.16382778"
       width="1.3276556"
       y="-0.26284134"
       height="1.5256827">
      <feGaussianBlur
         stdDeviation="5.0294596"
         id="feGaussianBlur2902" />
    </filter>
    <linearGradient
       xlink:href="#linearGradient1303"
       id="linearGradient2936"
       gradientUnits="userSpaceOnUse"
       gradientTransform="matrix(0.86367512,0,0,0.86367512,10.731084,49.91424)"
       x1="-189.25771"
       y1="136.90842"
       x2="-189.25771"
       y2="92.769196" />
    <clipPath
       clipPathUnits="userSpaceOnUse"
       id="clipPath1317-7">
      <path
         id="path1319-5"
         style="fill:#ffffff;fill-opacity:1;stroke:none;stroke-width:0.332769;stroke-linejoin:round;stroke-miterlimit:4;stroke-dasharray:none"
         d="m -167.52121,130.50639 a 22.087523,22.087523 0 0 0 -21.93303,21.21628 12.363733,12.363733 0 0 0 -0.70487,-0.0202 12.363733,12.363733 0 0 0 -12.36358,12.36359 12.363733,12.363733 0 0 0 9.3369,11.98738 c 0.77218,0.24409 1.59501,0.37672 2.44998,0.37672 h 0.5767 45.90883 c 0.1082,0 0.21532,-0.004 0.32246,-0.008 a 14.602271,14.602271 0 0 0 0.48214,0.008 14.602271,14.602271 0 0 0 14.60221,-14.60272 14.602271,14.602271 0 0 0 -14.60221,-14.60221 14.602271,14.602271 0 0 0 -2.46238,0.20929 22.087523,22.087523 0 0 0 -21.47621,-16.92817 22.087523,22.087523 0 0 0 -0.13694,0 z" />
    </clipPath>
    <filter
       style="color-interpolation-filters:sRGB"
       id="filter2071"
       x="-0.27220878"
       width="1.5444176"
       y="-0.43672514"
       height="1.8734503">
      <feGaussianBlur
         stdDeviation="8.2271054"
         id="feGaussianBlur2073" />
    </filter>
  </defs>
  <metadata
     id="metadata4000">
    <rdf:RDF>
      <cc:Work
         rdf:about="">
        <dc:format>image/svg+xml</dc:format>
        <dc:type
           rdf:resource="http://purl.org/dc/dcmitype/StillImage" />
        <dc:title></dc:title>
      </cc:Work>
    </rdf:RDF>
  </metadata>
  <g
     id="layer1">
    <g
       id="g3931"
       transform="matrix(0.68180266,0,0,0.68180266,104.47191,-49.44581)">
      <path
         id="path2918"
         style="fill:#ffffff;fill-opacity:1;stroke:none;stroke-width:0.332769;stroke-linejoin:round;stroke-miterlimit:4;stroke-dasharray:none"
         d="m -105.82605,96.278166 a 22.087523,22.087523 0 0 0 -21.93303,21.216274 12.363733,12.363733 0 0 0 -0.70487,-0.0202 12.363733,12.363733 0 0 0 -12.36358,12.36359 12.363733,12.363733 0 0 0 9.3369,11.98738 c 0.77218,0.24409 1.59501,0.37672 2.44998,0.37672 h 0.5767 45.908828 c 0.1082,0 0.21532,-0.004 0.32246,-0.008 a 14.602271,14.602271 0 0 0 0.48214,0.008 14.602271,14.602271 0 0 0 14.60221,-14.60272 14.602271,14.602271 0 0 0 -14.60221,-14.60221 14.602271,14.602271 0 0 0 -2.46238,0.20929 22.087523,22.087523 0 0 0 -21.476208,-16.928164 22.087523,22.087523 0 0 0 -0.13694,0 z" />
      <path
         id="path2922"
         style="opacity:0.362847;fill:#ffffff;fill-opacity:1;stroke:none;stroke-width:0.332769;stroke-linejoin:round;stroke-miterlimit:4;stroke-dasharray:none;filter:url(#filter3863)"
         d="m -105.82605,96.278164 a 22.087523,22.087523 0 0 0 -21.93303,21.216276 12.363733,12.363733 0 0 0 -0.70487,-0.0202 12.363733,12.363733 0 0 0 -12.36358,12.36359 12.363733,12.363733 0 0 0 9.3369,11.98738 c 0.77218,0.24409 1.59501,0.37672 2.44998,0.37672 h 0.5767 45.908828 c 0.1082,0 0.21532,-0.004 0.32246,-0.008 a 14.602271,14.602271 0 0 0 0.48214,0.008 14.602271,14.602271 0 0 0 14.60221,-14.60272 14.602271,14.602271 0 0 0 -14.60221,-14.60221 14.602271,14.602271 0 0 0 -2.46238,0.20929 22.087523,22.087523 0 0 0 -21.476208,-16.928166 22.087523,22.087523 0 0 0 -0.13694,0 z" />
      <path
         id="path2924"
         style="fill:url(#linearGradient2934);fill-opacity:1;stroke:none;stroke-width:1.14258;stroke-linejoin:round;stroke-miterlimit:4;stroke-dasharray:none;stroke-opacity:1"
         d="m -95.708222,93.290819 a 21.744935,21.744935 0 0 0 -10.897008,3.006019 22.087523,22.087523 0 0 1 0.77928,-0.01912 22.087523,22.087523 0 0 1 0.13694,0 22.087523,22.087523 0 0 1 21.476208,16.928162 14.602271,14.602271 0 0 1 2.46239,-0.20929 14.602271,14.602271 0 0 1 14.6022,14.60221 14.602271,14.602271 0 0 1 -4.88859,10.90321 14.375782,14.375782 0 0 0 0.0305,0 14.375782,14.375782 0 0 0 14.37587,-14.37586 14.375782,14.375782 0 0 0 -14.37587,-14.37587 14.375782,14.375782 0 0 0 -2.42414,0.20619 21.744935,21.744935 0 0 0 -21.14289,-16.665652 21.744935,21.744935 0 0 0 -0.13488,0 z" />
      <path
         id="path2926"
         style="fill:#ffffff;fill-opacity:1;stroke:none;stroke-width:0.332769;stroke-linejoin:round;stroke-miterlimit:4;stroke-dasharray:none;filter:url(#filter2900)"
         d="m -156.54037,192.13416 a 22.087523,22.087523 0 0 0 -21.93303,21.21628 12.363733,12.363733 0 0 0 -0.70487,-0.0202 12.363733,12.363733 0 0 0 -12.36358,12.36359 12.363733,12.363733 0 0 0 9.3369,11.98738 c 0.77218,0.24409 1.59501,0.37672 2.44998,0.37672 h 0.5767 45.90883 c 0.1082,0 0.21532,-0.004 0.32246,-0.008 a 14.602271,14.602271 0 0 0 0.48214,0.008 14.602271,14.602271 0 0 0 14.60221,-14.60272 14.602271,14.602271 0 0 0 -14.60221,-14.60221 14.602271,14.602271 0 0 0 -2.46238,0.20929 22.087523,22.087523 0 0 0 -21.47621,-16.92817 22.087523,22.087523 0 0 0 -0.13694,0 z"
         clip-path="url(#clipPath2404-3)"
         transform="translate(50.714318,-95.856)" />
      <path
         id="path2928"
         style="opacity:0.625985;fill:url(#linearGradient2936);fill-opacity:1;stroke:none;stroke-width:1.14258;stroke-linejoin:round;stroke-miterlimit:4;stroke-dasharray:none;stroke-opacity:1;filter:url(#filter2071)"
         d="m -157.40352,127.51904 a 21.744935,21.744935 0 0 0 -21.59284,20.88722 12.171965,12.171965 0 0 0 -0.69394,-0.0198 12.171965,12.171965 0 0 0 -12.17182,12.17182 12.171965,12.171965 0 0 0 9.19208,11.80145 c 0.76021,0.2403 1.57028,0.37088 2.41199,0.37088 h 0.56775 45.19676 c 0.10653,0 0.21198,-0.004 0.31746,-0.008 a 14.375782,14.375782 0 0 0 0.47466,0.008 14.375782,14.375782 0 0 0 14.37573,-14.37623 14.375782,14.375782 0 0 0 -14.37573,-14.37571 14.375782,14.375782 0 0 0 -2.42419,0.20603 21.744935,21.744935 0 0 0 -21.14309,-16.66561 21.744935,21.744935 0 0 0 -0.13482,0 z"
         clip-path="url(#clipPath1317-7)"
         transform="translate(61.695157,-34.228228)" />
      <g
         id="g3279"
         transform="translate(2.0934646)"
         style="fill:#0087ea;fill-opacity:1">
        <rect
           style="opacity:1;fill:#0087ea;fill-opacity:1;stroke:none;stroke-width:0.529;stroke-linejoin:round;stroke-miterlimit:4;stroke-dasharray:none"
           id="rect3248"
           width="5.9035711"
           height="11.116177"
           x="-130.554"
           y="146.43759"
           ry="2.9517856" />
        <rect
           style="opacity:1;fill:#0087ea;fill-opacity:1;stroke:none;stroke-width:0.529;stroke-linejoin:round;stroke-miterlimit:4;stroke-dasharray:none"
           id="rect3254"
           width="5.9035711"
           height="11.116177"
           x="-118.74686"
           y="146.43759"
           ry="2.9517856" />
        <rect
           style="opacity:1;fill:#0087ea;fill-opacity:1;stroke:none;stroke-width:0.529;stroke-linejoin:round;stroke-miterlimit:4;stroke-dasharray:none"
           id="rect3256"
           width="5.9035711"
           height="11.116177"
           x="-106.9397"
           y="146.43759"
           ry="2.9517856" />
        <rect
           style="opacity:1;fill:#0087ea;fill-opacity:1;stroke:none;stroke-width:0.529;stroke-linejoin:round;stroke-miterlimit:4;stroke-dasharray:none"
           id="rect3258"
           width="5.9035711"
           height="11.116177"
           x="-95.132553"
           y="146.43759"
           ry="2.9517856" />
        <rect
           style="opacity:1;fill:#0087ea;fill-opacity:1;stroke:none;stroke-width:0.529;stroke-linejoin:round;stroke-miterlimit:4;stroke-dasharray:none"
           id="rect3260"
           width="5.9035711"
           height="11.116177"
           x="-83.325409"
           y="146.43759"
           ry="2.9517856" />
      </g>
    </g>
  </g>
</svg>
