<?xml version="1.0" encoding="UTF-8" standalone="no"?>
<svg
   xmlns:dc="http://purl.org/dc/elements/1.1/"
   xmlns:cc="http://creativecommons.org/ns#"
   xmlns:rdf="http://www.w3.org/1999/02/22-rdf-syntax-ns#"
   xmlns:svg="http://www.w3.org/2000/svg"
   xmlns="http://www.w3.org/2000/svg"
   width="70mm"
   height="70mm"
   viewBox="0 0 70 70"
   version="1.1"
   id="svg4003">
  <defs
     id="defs3997">
    <clipPath
       clipPathUnits="userSpaceOnUse"
       id="clipPath3236">
      <path
         id="path3238"
         style="fill:#ffdd55;stroke:none;stroke-width:0.529;stroke-linejoin:round;stroke-miterlimit:4;stroke-dasharray:none;filter:url(#filter3232)"
         d="m 217.59135,114.68595 c -0.54123,0 -0.9772,0.43545 -0.9772,0.97668 v 2.44895 a 17.808125,17.808125 0 0 0 -2.68149,0.35295 l -0.63356,-2.36523 c -0.14008,-0.52278 -0.67404,-0.831 -1.19682,-0.69092 -0.52279,0.14008 -0.83099,0.67405 -0.69092,1.19683 l 0.63407,2.36575 a 17.808125,17.808125 0 0 0 -2.49855,1.03456 l -1.22474,-2.1208 c -0.27061,-0.46872 -0.86556,-0.62822 -1.33428,-0.3576 -0.46872,0.27061 -0.62821,0.86556 -0.3576,1.33428 l 1.22421,2.1208 a 17.808125,17.808125 0 0 0 -2.1456,1.64693 l -1.73168,-1.73168 c -0.38271,-0.3827 -0.99912,-0.3827 -1.38183,0 -0.3827,0.38271 -0.3827,0.99861 0,1.38132 l 1.73168,1.73167 a 17.808125,17.808125 0 0 0 -1.64589,2.14613 l -2.12132,-1.22474 c -0.46872,-0.27061 -1.06419,-0.11111 -1.3348,0.3576 -0.27062,0.46872 -0.11112,1.06419 0.3576,1.33481 l 2.12131,1.22473 a 17.808125,17.808125 0 0 0 -1.03507,2.49855 l -2.36575,-0.63407 c -0.52279,-0.14008 -1.05623,0.16813 -1.19631,0.69092 -0.14008,0.52278 0.16761,1.05623 0.6904,1.19631 l 2.36574,0.63407 a 17.808125,17.808125 0 0 0 -0.35295,2.68149 h -2.44894 c -0.54123,0 -0.9772,0.43545 -0.9772,0.97668 0,0.54123 0.43597,0.9772 0.9772,0.9772 H 199.81 a 17.808125,17.808125 0 0 0 0.35295,2.68098 l -2.36574,0.63407 c -0.52279,0.14008 -0.83048,0.67403 -0.6904,1.19682 0.14008,0.52279 0.67352,0.831 1.19631,0.69092 l 2.36575,-0.63407 a 17.808125,17.808125 0 0 0 1.03507,2.49855 l -2.12131,1.22473 c -0.46872,0.27062 -0.62822,0.86557 -0.3576,1.33429 0.27061,0.46872 0.86608,0.62821 1.3348,0.3576 l 2.1208,-1.22421 a 17.808125,17.808125 0 0 0 1.64641,2.1456 l -1.73168,1.73168 c -0.3827,0.3827 -0.3827,0.99912 0,1.38182 0.38271,0.38271 0.99912,0.38271 1.38183,0 l 1.73168,-1.73167 a 17.808125,17.808125 0 0 0 2.14612,1.64641 l -1.22473,2.1208 c -0.27061,0.46872 -0.11112,1.06419 0.3576,1.3348 0.46872,0.27062 1.06367,0.11112 1.33428,-0.3576 l 1.22474,-2.12132 a 17.808125,17.808125 0 0 0 2.49855,1.03508 l -0.63407,2.36575 c -0.14008,0.52279 0.16813,1.05623 0.69092,1.19631 0.52278,0.14008 1.05674,-0.16761 1.19682,-0.6904 l 0.63407,-2.36575 a 17.808125,17.808125 0 0 0 2.68098,0.35295 v 2.44895 c 0,0.54123 0.43597,0.9772 0.9772,0.9772 0.54123,0 0.97668,-0.43597 0.97668,-0.9772 v -2.44895 a 17.808125,17.808125 0 0 0 2.68149,-0.35295 l 0.63407,2.36575 c 0.14008,0.52279 0.67352,0.83048 1.19631,0.6904 0.52279,-0.14008 0.83099,-0.67352 0.69091,-1.19631 l -0.63407,-2.36575 a 17.808125,17.808125 0 0 0 2.49856,-1.03508 l 1.22473,2.12132 c 0.27062,0.46872 0.86609,0.62821 1.3348,0.3576 0.46872,-0.27061 0.62822,-0.86608 0.3576,-1.3348 l -1.22473,-2.1208 a 17.808125,17.808125 0 0 0 2.14612,-1.64641 l 1.73168,1.73167 c 0.3827,0.38271 0.99861,0.38271 1.38131,0 0.38271,-0.3827 0.3827,-0.99912 0,-1.38182 l -1.73167,-1.73168 a 17.808125,17.808125 0 0 0 1.64692,-2.14612 l 2.12081,1.22473 c 0.46872,0.27061 1.06367,0.11112 1.33428,-0.3576 0.27061,-0.46872 0.11112,-1.06367 -0.3576,-1.33429 l -2.1208,-1.22473 a 17.808125,17.808125 0 0 0 1.03508,-2.49804 l 2.36523,0.63356 c 0.52279,0.14008 1.05674,-0.16813 1.19682,-0.69092 0.14008,-0.52279 -0.16812,-1.05674 -0.69091,-1.19682 l -2.36575,-0.63407 a 17.808125,17.808125 0 0 0 0.35295,-2.68098 h 2.44947 c 0.54123,0 0.97668,-0.43597 0.97668,-0.9772 0,-0.54123 -0.43545,-0.97668 -0.97668,-0.97668 h -2.44895 a 17.808125,17.808125 0 0 0 -0.35295,-2.68149 l 2.36523,-0.63407 c 0.52279,-0.14008 0.83099,-0.67352 0.69091,-1.19631 -0.14008,-0.52279 -0.67403,-0.831 -1.19682,-0.69092 l -2.36523,0.63356 a 17.808125,17.808125 0 0 0 -1.03508,-2.49804 l 2.1208,-1.22473 c 0.46872,-0.27062 0.62822,-0.86609 0.3576,-1.33481 -0.27061,-0.46871 -0.86557,-0.62821 -1.33428,-0.3576 l -2.12132,1.22474 a 17.808125,17.808125 0 0 0 -1.64641,-2.14613 l 1.73167,-1.73167 c 0.38271,-0.38271 0.38271,-0.99861 0,-1.38132 -0.3827,-0.3827 -0.9986,-0.3827 -1.38131,0 l -1.73168,1.73168 a 17.808125,17.808125 0 0 0 -2.14612,-1.64641 l 1.22473,-2.12132 c 0.27062,-0.46872 0.11112,-1.06367 -0.3576,-1.33428 -0.46872,-0.27062 -1.06418,-0.11112 -1.3348,0.3576 l -1.22421,2.1208 a 17.808125,17.808125 0 0 0 -2.49856,-1.03508 l 0.63355,-2.36523 c 0.14008,-0.52279 -0.16812,-1.05675 -0.69091,-1.19683 -0.52279,-0.14008 -1.05623,0.16813 -1.19631,0.69092 l -0.63407,2.36575 a 17.808125,17.808125 0 0 0 -2.68149,-0.35296 v -2.44946 c 0,-0.54123 -0.43545,-0.97668 -0.97668,-0.97668 z"
         transform="matrix(1.4253473,0,0,1.4253473,-92.55179,-57.801801)" />
    </clipPath>
    <filter
       style="color-interpolation-filters:sRGB"
       id="filter3856"
       x="-0.17937033"
       width="1.3587407"
       y="-0.17937033"
       height="1.3587407">
      <feGaussianBlur
         stdDeviation="3.1699566"
         id="feGaussianBlur3858" />
    </filter>
  </defs>
  <metadata
     id="metadata4000">
    <rdf:RDF>
      <cc:Work
         rdf:about="">
        <dc:format>image/svg+xml</dc:format>
        <dc:type
           rdf:resource="http://purl.org/dc/dcmitype/StillImage" />
        <dc:title></dc:title>
      </cc:Work>
    </rdf:RDF>
  </metadata>
  <g
     id="layer1">
    <path
       id="path2988"
       style="opacity:0.460856;fill:#ffdd55;stroke:none;stroke-width:0.529;stroke-linejoin:round;stroke-miterlimit:4;stroke-dasharray:none;filter:url(#filter3856)"
       d="m 217.59135,114.68595 c -0.54123,0 -0.9772,0.43545 -0.9772,0.97668 v 2.44895 a 17.808125,17.808125 0 0 0 -2.68149,0.35295 l -0.63356,-2.36523 c -0.14008,-0.52278 -0.67404,-0.831 -1.19682,-0.69092 -0.52279,0.14008 -0.83099,0.67405 -0.69092,1.19683 l 0.63407,2.36575 a 17.808125,17.808125 0 0 0 -2.49855,1.03456 l -1.22474,-2.1208 c -0.27061,-0.46872 -0.86556,-0.62822 -1.33428,-0.3576 -0.46872,0.27061 -0.62821,0.86556 -0.3576,1.33428 l 1.22421,2.1208 a 17.808125,17.808125 0 0 0 -2.1456,1.64693 l -1.73168,-1.73168 c -0.38271,-0.3827 -0.99912,-0.3827 -1.38183,0 -0.3827,0.38271 -0.3827,0.99861 0,1.38132 l 1.73168,1.73167 a 17.808125,17.808125 0 0 0 -1.64589,2.14613 l -2.12132,-1.22474 c -0.46872,-0.27061 -1.06419,-0.11111 -1.3348,0.3576 -0.27062,0.46872 -0.11112,1.06419 0.3576,1.33481 l 2.12131,1.22473 a 17.808125,17.808125 0 0 0 -1.03507,2.49855 l -2.36575,-0.63407 c -0.52279,-0.14008 -1.05623,0.16813 -1.19631,0.69092 -0.14008,0.52278 0.16761,1.05623 0.6904,1.19631 l 2.36574,0.63407 a 17.808125,17.808125 0 0 0 -0.35295,2.68149 h -2.44894 c -0.54123,0 -0.9772,0.43545 -0.9772,0.97668 0,0.54123 0.43597,0.9772 0.9772,0.9772 H 199.81 a 17.808125,17.808125 0 0 0 0.35295,2.68098 l -2.36574,0.63407 c -0.52279,0.14008 -0.83048,0.67403 -0.6904,1.19682 0.14008,0.52279 0.67352,0.831 1.19631,0.69092 l 2.36575,-0.63407 a 17.808125,17.808125 0 0 0 1.03507,2.49855 l -2.12131,1.22473 c -0.46872,0.27062 -0.62822,0.86557 -0.3576,1.33429 0.27061,0.46872 0.86608,0.62821 1.3348,0.3576 l 2.1208,-1.22421 a 17.808125,17.808125 0 0 0 1.64641,2.1456 l -1.73168,1.73168 c -0.3827,0.3827 -0.3827,0.99912 0,1.38182 0.38271,0.38271 0.99912,0.38271 1.38183,0 l 1.73168,-1.73167 a 17.808125,17.808125 0 0 0 2.14612,1.64641 l -1.22473,2.1208 c -0.27061,0.46872 -0.11112,1.06419 0.3576,1.3348 0.46872,0.27062 1.06367,0.11112 1.33428,-0.3576 l 1.22474,-2.12132 a 17.808125,17.808125 0 0 0 2.49855,1.03508 l -0.63407,2.36575 c -0.14008,0.52279 0.16813,1.05623 0.69092,1.19631 0.52278,0.14008 1.05674,-0.16761 1.19682,-0.6904 l 0.63407,-2.36575 a 17.808125,17.808125 0 0 0 2.68098,0.35295 v 2.44895 c 0,0.54123 0.43597,0.9772 0.9772,0.9772 0.54123,0 0.97668,-0.43597 0.97668,-0.9772 v -2.44895 a 17.808125,17.808125 0 0 0 2.68149,-0.35295 l 0.63407,2.36575 c 0.14008,0.52279 0.67352,0.83048 1.19631,0.6904 0.52279,-0.14008 0.83099,-0.67352 0.69091,-1.19631 l -0.63407,-2.36575 a 17.808125,17.808125 0 0 0 2.49856,-1.03508 l 1.22473,2.12132 c 0.27062,0.46872 0.86609,0.62821 1.3348,0.3576 0.46872,-0.27061 0.62822,-0.86608 0.3576,-1.3348 l -1.22473,-2.1208 a 17.808125,17.808125 0 0 0 2.14612,-1.64641 l 1.73168,1.73167 c 0.3827,0.38271 0.99861,0.38271 1.38131,0 0.38271,-0.3827 0.3827,-0.99912 0,-1.38182 l -1.73167,-1.73168 a 17.808125,17.808125 0 0 0 1.64692,-2.14612 l 2.12081,1.22473 c 0.46872,0.27061 1.06367,0.11112 1.33428,-0.3576 0.27061,-0.46872 0.11112,-1.06367 -0.3576,-1.33429 l -2.1208,-1.22473 a 17.808125,17.808125 0 0 0 1.03508,-2.49804 l 2.36523,0.63356 c 0.52279,0.14008 1.05674,-0.16813 1.19682,-0.69092 0.14008,-0.52279 -0.16812,-1.05674 -0.69091,-1.19682 l -2.36575,-0.63407 a 17.808125,17.808125 0 0 0 0.35295,-2.68098 h 2.44947 c 0.54123,0 0.97668,-0.43597 0.97668,-0.9772 0,-0.54123 -0.43545,-0.97668 -0.97668,-0.97668 h -2.44895 a 17.808125,17.808125 0 0 0 -0.35295,-2.68149 l 2.36523,-0.63407 c 0.52279,-0.14008 0.83099,-0.67352 0.69091,-1.19631 -0.14008,-0.52279 -0.67403,-0.831 -1.19682,-0.69092 l -2.36523,0.63356 a 17.808125,17.808125 0 0 0 -1.03508,-2.49804 l 2.1208,-1.22473 c 0.46872,-0.27062 0.62822,-0.86609 0.3576,-1.33481 -0.27061,-0.46871 -0.86557,-0.62821 -1.33428,-0.3576 l -2.12132,1.22474 a 17.808125,17.808125 0 0 0 -1.64641,-2.14613 l 1.73167,-1.73167 c 0.38271,-0.38271 0.38271,-0.99861 0,-1.38132 -0.3827,-0.3827 -0.9986,-0.3827 -1.38131,0 l -1.73168,1.73168 a 17.808125,17.808125 0 0 0 -2.14612,-1.64641 l 1.22473,-2.12132 c 0.27062,-0.46872 0.11112,-1.06367 -0.3576,-1.33428 -0.46872,-0.27062 -1.06418,-0.11112 -1.3348,0.3576 l -1.22421,2.1208 a 17.808125,17.808125 0 0 0 -2.49856,-1.03508 l 0.63355,-2.36523 c 0.14008,-0.52279 -0.16812,-1.05675 -0.69091,-1.19683 -0.52279,-0.14008 -1.05623,0.16813 -1.19631,0.69092 l -0.63407,2.36575 a 17.808125,17.808125 0 0 0 -2.68149,-0.35296 v -2.44946 c 0,-0.54123 -0.43545,-0.97668 -0.97668,-0.97668 z"
       clip-path="url(#clipPath3236)"
       transform="matrix(1.2146398,0,0,1.2146398,-229.29481,-130.06127)" />
    <path
       id="path3232"
       style="fill:#ffdd55;stroke:none;stroke-width:0.494631;stroke-linejoin:round;stroke-miterlimit:4;stroke-dasharray:none"
       d="m 35.000226,15.170574 c -0.506067,0 -0.913713,0.407159 -0.913713,0.913226 v 2.289845 a 16.651152,16.651152 0 0 0 -2.507277,0.330019 L 30.986838,16.4921 c -0.130979,-0.488815 -0.630248,-0.777011 -1.119064,-0.646031 -0.488825,0.130979 -0.777002,0.630257 -0.646032,1.119073 l 0.592875,2.21205 a 16.651152,16.651152 0 0 0 -2.336222,0.967346 l -1.14517,-1.983014 c -0.253029,-0.438268 -0.809325,-0.587406 -1.247593,-0.334368 -0.438268,0.253029 -0.587396,0.809326 -0.334367,1.247594 l 1.144674,1.983014 a 16.651152,16.651152 0 0 0 -2.006203,1.539931 L 22.270561,20.97852 c -0.357845,-0.357836 -0.934208,-0.357836 -1.292054,0 -0.357836,0.357846 -0.357836,0.933732 0,1.291577 l 1.619175,1.619166 a 16.651152,16.651152 0 0 0 -1.538958,2.006698 l -1.983501,-1.14517 c -0.438268,-0.253028 -0.995051,-0.103891 -1.248079,0.334367 -0.253039,0.438268 -0.103901,0.995051 0.334367,1.248089 l 1.983491,1.145161 a 16.651152,16.651152 0 0 0 -0.967823,2.336222 l -2.21205,-0.592875 c -0.488825,-0.130979 -0.987608,0.157207 -1.118587,0.646032 -0.130979,0.488815 0.15672,0.987608 0.645545,1.118587 l 2.212041,0.592875 a 16.651152,16.651152 0 0 0 -0.330019,2.507277 h -2.289835 c -0.506067,0 -0.913713,0.407159 -0.913713,0.913226 0,0.506067 0.407646,0.913713 0.913713,0.913713 h 2.289835 a 16.651152,16.651152 0 0 0 0.330019,2.5068 l -2.212041,0.592875 c -0.488825,0.130979 -0.776524,0.630239 -0.645545,1.119064 0.130979,0.488825 0.629762,0.777011 1.118587,0.646032 l 2.21205,-0.592876 a 16.651152,16.651152 0 0 0 0.967823,2.336223 l -1.983491,1.14516 c -0.438268,0.253039 -0.587406,0.809335 -0.334367,1.247603 0.253028,0.438268 0.809811,0.587396 1.248079,0.334367 l 1.983014,-1.144674 a 16.651152,16.651152 0 0 0 1.539445,2.006203 l -1.619175,1.619175 c -0.357836,0.357836 -0.357836,0.934208 0,1.292044 0.357846,0.357846 0.934209,0.357846 1.292054,0 l 1.619175,-1.619165 a 16.651152,16.651152 0 0 0 2.006689,1.539445 l -1.14516,1.983014 c -0.253029,0.438268 -0.103901,0.995051 0.334367,1.248079 0.438268,0.253039 0.994564,0.103901 1.247593,-0.334367 l 1.14517,-1.9835 a 16.651152,16.651152 0 0 0 2.336222,0.967832 l -0.592875,2.21205 c -0.130979,0.488825 0.157207,0.987608 0.646032,1.118587 0.488816,0.130979 0.988085,-0.15672 1.119064,-0.645545 l 0.592875,-2.21205 a 16.651152,16.651152 0 0 0 2.5068,0.330019 v 2.289844 c 0,0.506067 0.407646,0.913713 0.913713,0.913713 0.506067,0 0.913226,-0.407646 0.913226,-0.913713 V 51.62586 a 16.651152,16.651152 0 0 0 2.507277,-0.330019 l 0.592875,2.21205 c 0.130979,0.488825 0.629762,0.776524 1.118587,0.645545 0.488825,-0.130979 0.777002,-0.629762 0.646022,-1.118587 l -0.592875,-2.21205 a 16.651152,16.651152 0 0 0 2.336232,-0.967832 l 1.145161,1.9835 c 0.253038,0.438268 0.809821,0.587396 1.248079,0.334367 0.438268,-0.253028 0.587405,-0.809811 0.334367,-1.248079 l -1.14516,-1.983014 a 16.651152,16.651152 0 0 0 2.006689,-1.539445 l 1.619175,1.619165 c 0.357836,0.357846 0.933731,0.357846 1.291567,0 0.357846,-0.357836 0.357837,-0.934208 0,-1.292044 l -1.619165,-1.619175 a 16.651152,16.651152 0 0 0 1.539922,-2.006689 l 1.983023,1.14516 c 0.438268,0.253029 0.994565,0.103901 1.247593,-0.334367 0.253029,-0.438268 0.103901,-0.994564 -0.334367,-1.247603 l -1.983014,-1.14516 a 16.651152,16.651152 0 0 0 0.967832,-2.335746 l 2.211564,0.592399 c 0.488825,0.130979 0.988085,-0.157207 1.119064,-0.646032 0.130979,-0.488825 -0.157197,-0.988085 -0.646022,-1.119064 l -2.21205,-0.592875 a 16.651152,16.651152 0 0 0 0.330019,-2.5068 h 2.290331 c 0.506067,0 0.913226,-0.407646 0.913226,-0.913713 0,-0.506067 -0.407159,-0.913226 -0.913226,-0.913226 h -2.289845 a 16.651152,16.651152 0 0 0 -0.330019,-2.507277 l 2.211564,-0.592875 c 0.488825,-0.130979 0.777001,-0.629762 0.646022,-1.118587 -0.130979,-0.488825 -0.630239,-0.777011 -1.119064,-0.646032 l -2.211564,0.592398 A 16.651152,16.651152 0 0 0 49.85544,27.478408 l 1.983014,-1.145161 c 0.438268,-0.253038 0.587406,-0.809821 0.334367,-1.248089 -0.253028,-0.438258 -0.809334,-0.587395 -1.247593,-0.334367 l -1.9835,1.14517 a 16.651152,16.651152 0 0 0 -1.539445,-2.006698 l 1.619165,-1.619166 c 0.357846,-0.357845 0.357846,-0.933731 0,-1.291577 -0.357836,-0.357836 -0.933722,-0.357836 -1.291567,0 l -1.619175,1.619175 A 16.651152,16.651152 0 0 0 44.104017,21.05825 l 1.14516,-1.9835 c 0.253038,-0.438268 0.103901,-0.994565 -0.334367,-1.247594 -0.438268,-0.253038 -0.995041,-0.1039 -1.248079,0.334368 l -1.144675,1.983014 a 16.651152,16.651152 0 0 0 -2.336232,-0.967832 l 0.592389,-2.211564 c 0.13098,-0.488825 -0.157197,-0.988094 -0.646022,-1.119073 -0.488825,-0.13098 -0.987608,0.157206 -1.118587,0.646031 l -0.592875,2.21205 A 16.651152,16.651152 0 0 0 35.913452,18.374122 V 16.0838 c 0,-0.506067 -0.407159,-0.913226 -0.913226,-0.913226 z" />
  </g>
</svg>
